ISO-10303-21;
HEADER;
FILE_DESCRIPTION(('FreeCAD Model'),'2;1');
FILE_NAME('Open CASCADE Shape Model','2026-03-26T12:48:17',(''),(''),
  'Open CASCADE STEP processor 7.8','FreeCAD','Unknown');
FILE_SCHEMA(('AUTOMOTIVE_DESIGN { 1 0 10303 214 1 1 1 1 }'));
ENDSEC;
DATA;
#1 = APPLICATION_PROTOCOL_DEFINITION('international standard',
  'automotive_design',2000,#2);
#2 = APPLICATION_CONTEXT(
  'core data for automotive mechanical design processes');
#3 = SHAPE_DEFINITION_REPRESENTATION(#4,#10);
#4 = PRODUCT_DEFINITION_SHAPE('','',#5);
#5 = PRODUCT_DEFINITION('design','',#6,#9);
#6 = PRODUCT_DEFINITION_FORMATION('','',#7);
#7 = PRODUCT('mainplate','mainplate','',(#8));
#8 = PRODUCT_CONTEXT('',#2,'mechanical');
#9 = PRODUCT_DEFINITION_CONTEXT('part definition',#2,'design');
#10 = ADVANCED_BREP_SHAPE_REPRESENTATION('',(#11,#15),#2068);
#11 = AXIS2_PLACEMENT_3D('',#12,#13,#14);
#12 = CARTESIAN_POINT('',(0.,0.,0.));
#13 = DIRECTION('',(0.,0.,1.));
#14 = DIRECTION('',(1.,0.,-0.));
#15 = MANIFOLD_SOLID_BREP('',#16);
#16 = CLOSED_SHELL('',(#17,#113,#172,#197,#334,#359,#461,#485,#525,#549,
    #756,#781,#815,#942,#967,#984,#1009,#1055,#1073,#1090,#1107,#1124,
    #1148,#1165,#1177,#1202,#1227,#1252,#1277,#1294,#1311,#1328,#1347,
    #1364,#1376,#1401,#1426,#1450,#1467,#1484,#1508,#1525,#1549,#1566,
    #1591,#1616,#1641,#1654,#1686,#1711,#1751,#1776,#1801,#1833,#1858,
    #1895,#1907,#1927,#1947,#1959,#1971,#1997,#2006,#2015,#2027,#2039,
    #2051));
#17 = ADVANCED_FACE('',(#18),#108,.T.);
#18 = FACE_BOUND('',#19,.T.);
#19 = EDGE_LOOP('',(#20,#30,#38,#46,#54,#62,#70,#78,#86,#94,#102));
#20 = ORIENTED_EDGE('',*,*,#21,.F.);
#21 = EDGE_CURVE('',#22,#24,#26,.T.);
#22 = VERTEX_POINT('',#23);
#23 = CARTESIAN_POINT('',(203.,30.46194243423,0.));
#24 = VERTEX_POINT('',#25);
#25 = CARTESIAN_POINT('',(203.,2.,0.));
#26 = LINE('',#27,#28);
#27 = CARTESIAN_POINT('',(203.,101.55,0.));
#28 = VECTOR('',#29,1.);
#29 = DIRECTION('',(0.,-1.,0.));
#30 = ORIENTED_EDGE('',*,*,#31,.T.);
#31 = EDGE_CURVE('',#22,#32,#34,.T.);
#32 = VERTEX_POINT('',#33);
#33 = CARTESIAN_POINT('',(203.,34.,4.216492814812));
#34 = LINE('',#35,#36);
#35 = CARTESIAN_POINT('',(203.,48.041907696013,20.950986758411));
#36 = VECTOR('',#37,1.);
#37 = DIRECTION('',(-0.,0.642787609687,0.766044443119));
#38 = ORIENTED_EDGE('',*,*,#39,.F.);
#39 = EDGE_CURVE('',#40,#32,#42,.T.);
#40 = VERTEX_POINT('',#41);
#41 = CARTESIAN_POINT('',(203.,34.,7.6));
#42 = LINE('',#43,#44);
#43 = CARTESIAN_POINT('',(203.,34.,7.6));
#44 = VECTOR('',#45,1.);
#45 = DIRECTION('',(0.,0.,-1.));
#46 = ORIENTED_EDGE('',*,*,#47,.F.);
#47 = EDGE_CURVE('',#48,#40,#50,.T.);
#48 = VERTEX_POINT('',#49);
#49 = CARTESIAN_POINT('',(203.,72.,7.6));
#50 = LINE('',#51,#52);
#51 = CARTESIAN_POINT('',(203.,72.761454725147,7.6));
#52 = VECTOR('',#53,1.);
#53 = DIRECTION('',(-0.,-1.,-0.));
#54 = ORIENTED_EDGE('',*,*,#55,.F.);
#55 = EDGE_CURVE('',#56,#48,#58,.T.);
#56 = VERTEX_POINT('',#57);
#57 = CARTESIAN_POINT('',(203.,72.,6.6));
#58 = LINE('',#59,#60);
#59 = CARTESIAN_POINT('',(203.,72.,3.8));
#60 = VECTOR('',#61,1.);
#61 = DIRECTION('',(0.,0.,1.));
#62 = ORIENTED_EDGE('',*,*,#63,.F.);
#63 = EDGE_CURVE('',#64,#56,#66,.T.);
#64 = VERTEX_POINT('',#65);
#65 = CARTESIAN_POINT('',(203.,71.5,6.004123203703));
#66 = LINE('',#67,#68);
#67 = CARTESIAN_POINT('',(203.,76.479741295015,11.938747782227));
#68 = VECTOR('',#69,1.);
#69 = DIRECTION('',(0.,0.642787609687,0.766044443119));
#70 = ORIENTED_EDGE('',*,*,#71,.F.);
#71 = EDGE_CURVE('',#72,#64,#74,.T.);
#72 = VERTEX_POINT('',#73);
#73 = CARTESIAN_POINT('',(203.,71.5,0.));
#74 = LINE('',#75,#76);
#75 = CARTESIAN_POINT('',(203.,71.5,0.));
#76 = VECTOR('',#77,1.);
#77 = DIRECTION('',(0.,0.,1.));
#78 = ORIENTED_EDGE('',*,*,#79,.F.);
#79 = EDGE_CURVE('',#80,#72,#82,.T.);
#80 = VERTEX_POINT('',#81);
#81 = CARTESIAN_POINT('',(203.,99.55,0.));
#82 = LINE('',#83,#84);
#83 = CARTESIAN_POINT('',(203.,101.55,0.));
#84 = VECTOR('',#85,1.);
#85 = DIRECTION('',(0.,-1.,0.));
#86 = ORIENTED_EDGE('',*,*,#87,.T.);
#87 = EDGE_CURVE('',#80,#88,#90,.T.);
#88 = VERTEX_POINT('',#89);
#89 = CARTESIAN_POINT('',(203.,99.55,15.));
#90 = LINE('',#91,#92);
#91 = CARTESIAN_POINT('',(203.,99.55,0.));
#92 = VECTOR('',#93,1.);
#93 = DIRECTION('',(0.,0.,1.));
#94 = ORIENTED_EDGE('',*,*,#95,.T.);
#95 = EDGE_CURVE('',#88,#96,#98,.T.);
#96 = VERTEX_POINT('',#97);
#97 = CARTESIAN_POINT('',(203.,2.,15.));
#98 = LINE('',#99,#100);
#99 = CARTESIAN_POINT('',(203.,101.55,15.));
#100 = VECTOR('',#101,1.);
#101 = DIRECTION('',(0.,-1.,0.));
#102 = ORIENTED_EDGE('',*,*,#103,.F.);
#103 = EDGE_CURVE('',#24,#96,#104,.T.);
#104 = LINE('',#105,#106);
#105 = CARTESIAN_POINT('',(203.,2.,0.));
#106 = VECTOR('',#107,1.);
#107 = DIRECTION('',(0.,0.,1.));
#108 = PLANE('',#109);
#109 = AXIS2_PLACEMENT_3D('',#110,#111,#112);
#110 = CARTESIAN_POINT('',(203.,101.55,0.));
#111 = DIRECTION('',(1.,0.,0.));
#112 = DIRECTION('',(0.,-1.,0.));
#113 = ADVANCED_FACE('',(#114,#156),#167,.F.);
#114 = FACE_BOUND('',#115,.F.);
#115 = EDGE_LOOP('',(#116,#124,#132,#140,#148,#155));
#116 = ORIENTED_EDGE('',*,*,#117,.T.);
#117 = EDGE_CURVE('',#22,#118,#120,.T.);
#118 = VERTEX_POINT('',#119);
#119 = CARTESIAN_POINT('',(150.42153903091,30.46194243423,
    -7.141627335531E-15));
#120 = LINE('',#121,#122);
#121 = CARTESIAN_POINT('',(51.651206698407,30.46194243423,
    -8.881784197001E-16));
#122 = VECTOR('',#123,1.);
#123 = DIRECTION('',(-1.,0.,0.));
#124 = ORIENTED_EDGE('',*,*,#125,.F.);
#125 = EDGE_CURVE('',#126,#118,#128,.T.);
#126 = VERTEX_POINT('',#127);
#127 = CARTESIAN_POINT('',(150.42153903091,1.578193035698,-1.E-15));
#128 = LINE('',#129,#130);
#129 = CARTESIAN_POINT('',(150.42153903091,-4.4E-16,-4.4E-16));
#130 = VECTOR('',#131,1.);
#131 = DIRECTION('',(0.,1.,-2.2E-16));
#132 = ORIENTED_EDGE('',*,*,#133,.T.);
#133 = EDGE_CURVE('',#126,#134,#136,.T.);
#134 = VERTEX_POINT('',#135);
#135 = CARTESIAN_POINT('',(151.99973206661,0.,0.));
#136 = LINE('',#137,#138);
#137 = CARTESIAN_POINT('',(124.84247301665,27.157259049962,0.));
#138 = VECTOR('',#139,1.);
#139 = DIRECTION('',(0.707106781187,-0.707106781187,0.));
#140 = ORIENTED_EDGE('',*,*,#141,.F.);
#141 = EDGE_CURVE('',#142,#134,#144,.T.);
#142 = VERTEX_POINT('',#143);
#143 = CARTESIAN_POINT('',(201.,0.,0.));
#144 = LINE('',#145,#146);
#145 = CARTESIAN_POINT('',(203.,0.,0.));
#146 = VECTOR('',#147,1.);
#147 = DIRECTION('',(-1.,0.,0.));
#148 = ORIENTED_EDGE('',*,*,#149,.T.);
#149 = EDGE_CURVE('',#142,#24,#150,.T.);
#150 = CIRCLE('',#151,2.);
#151 = AXIS2_PLACEMENT_3D('',#152,#153,#154);
#152 = CARTESIAN_POINT('',(201.,2.,0.));
#153 = DIRECTION('',(-0.,0.,1.));
#154 = DIRECTION('',(0.,-1.,0.));
#155 = ORIENTED_EDGE('',*,*,#21,.F.);
#156 = FACE_BOUND('',#157,.F.);
#157 = EDGE_LOOP('',(#158));
#158 = ORIENTED_EDGE('',*,*,#159,.T.);
#159 = EDGE_CURVE('',#160,#160,#162,.T.);
#160 = VERTEX_POINT('',#161);
#161 = CARTESIAN_POINT('',(193.62435,2.8417,0.));
#162 = CIRCLE('',#163,1.75);
#163 = AXIS2_PLACEMENT_3D('',#164,#165,#166);
#164 = CARTESIAN_POINT('',(191.87435,2.8417,0.));
#165 = DIRECTION('',(0.,0.,-1.));
#166 = DIRECTION('',(1.,0.,0.));
#167 = PLANE('',#168);
#168 = AXIS2_PLACEMENT_3D('',#169,#170,#171);
#169 = CARTESIAN_POINT('',(103.30241339681,52.577413396815,0.));
#170 = DIRECTION('',(0.,0.,1.));
#171 = DIRECTION('',(1.,0.,0.));
#172 = ADVANCED_FACE('',(#173),#192,.T.);
#173 = FACE_BOUND('',#174,.T.);
#174 = EDGE_LOOP('',(#175,#176,#177,#186));
#175 = ORIENTED_EDGE('',*,*,#149,.T.);
#176 = ORIENTED_EDGE('',*,*,#103,.T.);
#177 = ORIENTED_EDGE('',*,*,#178,.F.);
#178 = EDGE_CURVE('',#179,#96,#181,.T.);
#179 = VERTEX_POINT('',#180);
#180 = CARTESIAN_POINT('',(201.,0.,15.));
#181 = CIRCLE('',#182,2.);
#182 = AXIS2_PLACEMENT_3D('',#183,#184,#185);
#183 = CARTESIAN_POINT('',(201.,2.,15.));
#184 = DIRECTION('',(-0.,0.,1.));
#185 = DIRECTION('',(0.,-1.,0.));
#186 = ORIENTED_EDGE('',*,*,#187,.F.);
#187 = EDGE_CURVE('',#142,#179,#188,.T.);
#188 = LINE('',#189,#190);
#189 = CARTESIAN_POINT('',(201.,-4.4E-16,0.));
#190 = VECTOR('',#191,1.);
#191 = DIRECTION('',(0.,0.,1.));
#192 = CYLINDRICAL_SURFACE('',#193,2.);
#193 = AXIS2_PLACEMENT_3D('',#194,#195,#196);
#194 = CARTESIAN_POINT('',(201.,2.,0.));
#195 = DIRECTION('',(0.,0.,1.));
#196 = DIRECTION('',(0.,-1.,0.));
#197 = ADVANCED_FACE('',(#198,#285,#296,#307,#318),#329,.T.);
#198 = FACE_BOUND('',#199,.T.);
#199 = EDGE_LOOP('',(#200,#210,#219,#225,#226,#227,#236,#244,#253,#261,
    #270,#278));
#200 = ORIENTED_EDGE('',*,*,#201,.F.);
#201 = EDGE_CURVE('',#202,#204,#206,.T.);
#202 = VERTEX_POINT('',#203);
#203 = CARTESIAN_POINT('',(19.5,2.,15.));
#204 = VERTEX_POINT('',#205);
#205 = CARTESIAN_POINT('',(19.5,54.3,15.));
#206 = LINE('',#207,#208);
#207 = CARTESIAN_POINT('',(19.5,0.,15.));
#208 = VECTOR('',#209,1.);
#209 = DIRECTION('',(0.,1.,0.));
#210 = ORIENTED_EDGE('',*,*,#211,.T.);
#211 = EDGE_CURVE('',#202,#212,#214,.T.);
#212 = VERTEX_POINT('',#213);
#213 = CARTESIAN_POINT('',(21.5,0.,15.));
#214 = CIRCLE('',#215,2.);
#215 = AXIS2_PLACEMENT_3D('',#216,#217,#218);
#216 = CARTESIAN_POINT('',(21.5,2.,15.));
#217 = DIRECTION('',(-0.,0.,1.));
#218 = DIRECTION('',(0.,-1.,0.));
#219 = ORIENTED_EDGE('',*,*,#220,.F.);
#220 = EDGE_CURVE('',#179,#212,#221,.T.);
#221 = LINE('',#222,#223);
#222 = CARTESIAN_POINT('',(203.,0.,15.));
#223 = VECTOR('',#224,1.);
#224 = DIRECTION('',(-1.,0.,0.));
#225 = ORIENTED_EDGE('',*,*,#178,.T.);
#226 = ORIENTED_EDGE('',*,*,#95,.F.);
#227 = ORIENTED_EDGE('',*,*,#228,.T.);
#228 = EDGE_CURVE('',#88,#229,#231,.T.);
#229 = VERTEX_POINT('',#230);
#230 = CARTESIAN_POINT('',(201.,101.55,15.));
#231 = CIRCLE('',#232,2.);
#232 = AXIS2_PLACEMENT_3D('',#233,#234,#235);
#233 = CARTESIAN_POINT('',(201.,99.55,15.));
#234 = DIRECTION('',(-0.,0.,1.));
#235 = DIRECTION('',(0.,-1.,0.));
#236 = ORIENTED_EDGE('',*,*,#237,.F.);
#237 = EDGE_CURVE('',#238,#229,#240,.T.);
#238 = VERTEX_POINT('',#239);
#239 = CARTESIAN_POINT('',(2.,101.55,15.));
#240 = LINE('',#241,#242);
#241 = CARTESIAN_POINT('',(0.,101.55,15.));
#242 = VECTOR('',#243,1.);
#243 = DIRECTION('',(1.,0.,0.));
#244 = ORIENTED_EDGE('',*,*,#245,.F.);
#245 = EDGE_CURVE('',#246,#238,#248,.T.);
#246 = VERTEX_POINT('',#247);
#247 = CARTESIAN_POINT('',(0.,99.55,15.));
#248 = CIRCLE('',#249,2.);
#249 = AXIS2_PLACEMENT_3D('',#250,#251,#252);
#250 = CARTESIAN_POINT('',(2.,99.55,15.));
#251 = DIRECTION('',(-0.,-0.,-1.));
#252 = DIRECTION('',(0.,-1.,0.));
#253 = ORIENTED_EDGE('',*,*,#254,.F.);
#254 = EDGE_CURVE('',#255,#246,#257,.T.);
#255 = VERTEX_POINT('',#256);
#256 = CARTESIAN_POINT('',(0.,58.3,15.));
#257 = LINE('',#258,#259);
#258 = CARTESIAN_POINT('',(0.,56.3,15.));
#259 = VECTOR('',#260,1.);
#260 = DIRECTION('',(0.,1.,0.));
#261 = ORIENTED_EDGE('',*,*,#262,.F.);
#262 = EDGE_CURVE('',#263,#255,#265,.T.);
#263 = VERTEX_POINT('',#264);
#264 = CARTESIAN_POINT('',(2.,56.3,15.));
#265 = CIRCLE('',#266,2.);
#266 = AXIS2_PLACEMENT_3D('',#267,#268,#269);
#267 = CARTESIAN_POINT('',(2.,58.3,15.));
#268 = DIRECTION('',(-0.,-0.,-1.));
#269 = DIRECTION('',(0.,-1.,0.));
#270 = ORIENTED_EDGE('',*,*,#271,.F.);
#271 = EDGE_CURVE('',#272,#263,#274,.T.);
#272 = VERTEX_POINT('',#273);
#273 = CARTESIAN_POINT('',(17.5,56.3,15.));
#274 = LINE('',#275,#276);
#275 = CARTESIAN_POINT('',(19.5,56.3,15.));
#276 = VECTOR('',#277,1.);
#277 = DIRECTION('',(-1.,0.,0.));
#278 = ORIENTED_EDGE('',*,*,#279,.F.);
#279 = EDGE_CURVE('',#204,#272,#280,.T.);
#280 = CIRCLE('',#281,2.);
#281 = AXIS2_PLACEMENT_3D('',#282,#283,#284);
#282 = CARTESIAN_POINT('',(17.5,54.3,15.));
#283 = DIRECTION('',(-0.,0.,1.));
#284 = DIRECTION('',(0.,-1.,0.));
#285 = FACE_BOUND('',#286,.T.);
#286 = EDGE_LOOP('',(#287));
#287 = ORIENTED_EDGE('',*,*,#288,.F.);
#288 = EDGE_CURVE('',#289,#289,#291,.T.);
#289 = VERTEX_POINT('',#290);
#290 = CARTESIAN_POINT('',(25.05935,3.4017,15.));
#291 = CIRCLE('',#292,2.);
#292 = AXIS2_PLACEMENT_3D('',#293,#294,#295);
#293 = CARTESIAN_POINT('',(23.05935,3.4017,15.));
#294 = DIRECTION('',(0.,0.,1.));
#295 = DIRECTION('',(1.,0.,0.));
#296 = FACE_BOUND('',#297,.T.);
#297 = EDGE_LOOP('',(#298));
#298 = ORIENTED_EDGE('',*,*,#299,.F.);
#299 = EDGE_CURVE('',#300,#300,#302,.T.);
#300 = VERTEX_POINT('',#301);
#301 = CARTESIAN_POINT('',(193.87435,2.8417,15.));
#302 = CIRCLE('',#303,2.);
#303 = AXIS2_PLACEMENT_3D('',#304,#305,#306);
#304 = CARTESIAN_POINT('',(191.87435,2.8417,15.));
#305 = DIRECTION('',(0.,0.,1.));
#306 = DIRECTION('',(1.,0.,0.));
#307 = FACE_BOUND('',#308,.T.);
#308 = EDGE_LOOP('',(#309));
#309 = ORIENTED_EDGE('',*,*,#310,.F.);
#310 = EDGE_CURVE('',#311,#311,#313,.T.);
#311 = VERTEX_POINT('',#312);
#312 = CARTESIAN_POINT('',(5.24935,71.9667,15.));
#313 = CIRCLE('',#314,2.);
#314 = AXIS2_PLACEMENT_3D('',#315,#316,#317);
#315 = CARTESIAN_POINT('',(3.24935,71.9667,15.));
#316 = DIRECTION('',(0.,0.,1.));
#317 = DIRECTION('',(1.,0.,0.));
#318 = FACE_BOUND('',#319,.T.);
#319 = EDGE_LOOP('',(#320));
#320 = ORIENTED_EDGE('',*,*,#321,.F.);
#321 = EDGE_CURVE('',#322,#322,#324,.T.);
#322 = VERTEX_POINT('',#323);
#323 = CARTESIAN_POINT('',(192.99935,97.8417,15.));
#324 = CIRCLE('',#325,2.);
#325 = AXIS2_PLACEMENT_3D('',#326,#327,#328);
#326 = CARTESIAN_POINT('',(190.99935,97.8417,15.));
#327 = DIRECTION('',(0.,0.,1.));
#328 = DIRECTION('',(1.,0.,0.));
#329 = PLANE('',#330);
#330 = AXIS2_PLACEMENT_3D('',#331,#332,#333);
#331 = CARTESIAN_POINT('',(103.30241339681,52.577413396815,15.));
#332 = DIRECTION('',(0.,0.,1.));
#333 = DIRECTION('',(1.,0.,0.));
#334 = ADVANCED_FACE('',(#335),#354,.T.);
#335 = FACE_BOUND('',#336,.T.);
#336 = EDGE_LOOP('',(#337,#346,#352,#353));
#337 = ORIENTED_EDGE('',*,*,#338,.T.);
#338 = EDGE_CURVE('',#80,#339,#341,.T.);
#339 = VERTEX_POINT('',#340);
#340 = CARTESIAN_POINT('',(201.,101.55,0.));
#341 = CIRCLE('',#342,2.);
#342 = AXIS2_PLACEMENT_3D('',#343,#344,#345);
#343 = CARTESIAN_POINT('',(201.,99.55,0.));
#344 = DIRECTION('',(-0.,0.,1.));
#345 = DIRECTION('',(0.,-1.,0.));
#346 = ORIENTED_EDGE('',*,*,#347,.T.);
#347 = EDGE_CURVE('',#339,#229,#348,.T.);
#348 = LINE('',#349,#350);
#349 = CARTESIAN_POINT('',(201.,101.55,0.));
#350 = VECTOR('',#351,1.);
#351 = DIRECTION('',(0.,0.,1.));
#352 = ORIENTED_EDGE('',*,*,#228,.F.);
#353 = ORIENTED_EDGE('',*,*,#87,.F.);
#354 = CYLINDRICAL_SURFACE('',#355,2.);
#355 = AXIS2_PLACEMENT_3D('',#356,#357,#358);
#356 = CARTESIAN_POINT('',(201.,99.55,0.));
#357 = DIRECTION('',(0.,0.,1.));
#358 = DIRECTION('',(1.,0.,0.));
#359 = ADVANCED_FACE('',(#360,#445),#456,.F.);
#360 = FACE_BOUND('',#361,.F.);
#361 = EDGE_LOOP('',(#362,#372,#381,#389,#398,#406,#414,#422,#428,#429,
    #430,#438));
#362 = ORIENTED_EDGE('',*,*,#363,.F.);
#363 = EDGE_CURVE('',#364,#366,#368,.T.);
#364 = VERTEX_POINT('',#365);
#365 = CARTESIAN_POINT('',(0.,79.0179,0.));
#366 = VERTEX_POINT('',#367);
#367 = CARTESIAN_POINT('',(0.,99.55,0.));
#368 = LINE('',#369,#370);
#369 = CARTESIAN_POINT('',(0.,56.3,0.));
#370 = VECTOR('',#371,1.);
#371 = DIRECTION('',(0.,1.,0.));
#372 = ORIENTED_EDGE('',*,*,#373,.T.);
#373 = EDGE_CURVE('',#364,#374,#376,.T.);
#374 = VERTEX_POINT('',#375);
#375 = CARTESIAN_POINT('',(2.,77.0179,0.));
#376 = CIRCLE('',#377,2.);
#377 = AXIS2_PLACEMENT_3D('',#378,#379,#380);
#378 = CARTESIAN_POINT('',(2.,79.0179,0.));
#379 = DIRECTION('',(-0.,0.,1.));
#380 = DIRECTION('',(0.,-1.,0.));
#381 = ORIENTED_EDGE('',*,*,#382,.T.);
#382 = EDGE_CURVE('',#374,#383,#385,.T.);
#383 = VERTEX_POINT('',#384);
#384 = CARTESIAN_POINT('',(17.2224,77.0179,0.));
#385 = LINE('',#386,#387);
#386 = CARTESIAN_POINT('',(47.662674650788,77.0179,0.));
#387 = VECTOR('',#388,1.);
#388 = DIRECTION('',(1.,0.,0.));
#389 = ORIENTED_EDGE('',*,*,#390,.F.);
#390 = EDGE_CURVE('',#391,#383,#393,.T.);
#391 = VERTEX_POINT('',#392);
#392 = CARTESIAN_POINT('',(19.2224,75.0179,0.));
#393 = CIRCLE('',#394,2.);
#394 = AXIS2_PLACEMENT_3D('',#395,#396,#397);
#395 = CARTESIAN_POINT('',(17.2224,75.0179,0.));
#396 = DIRECTION('',(0.,0.,1.));
#397 = DIRECTION('',(1.,0.,0.));
#398 = ORIENTED_EDGE('',*,*,#399,.T.);
#399 = EDGE_CURVE('',#391,#400,#402,.T.);
#400 = VERTEX_POINT('',#401);
#401 = CARTESIAN_POINT('',(19.2224,71.5,0.));
#402 = LINE('',#403,#404);
#403 = CARTESIAN_POINT('',(19.2224,63.797656698407,0.));
#404 = VECTOR('',#405,1.);
#405 = DIRECTION('',(0.,-1.,0.));
#406 = ORIENTED_EDGE('',*,*,#407,.F.);
#407 = EDGE_CURVE('',#408,#400,#410,.T.);
#408 = VERTEX_POINT('',#409);
#409 = CARTESIAN_POINT('',(21.2224,69.5,0.));
#410 = LINE('',#411,#412);
#411 = CARTESIAN_POINT('',(45.47305,45.24935,0.));
#412 = VECTOR('',#413,1.);
#413 = DIRECTION('',(-0.707106781187,0.707106781187,0.));
#414 = ORIENTED_EDGE('',*,*,#415,.T.);
#415 = EDGE_CURVE('',#408,#416,#418,.T.);
#416 = VERTEX_POINT('',#417);
#417 = CARTESIAN_POINT('',(201.,69.5,0.));
#418 = LINE('',#419,#420);
#419 = CARTESIAN_POINT('',(0.,69.5,0.));
#420 = VECTOR('',#421,1.);
#421 = DIRECTION('',(1.,0.,0.));
#422 = ORIENTED_EDGE('',*,*,#423,.F.);
#423 = EDGE_CURVE('',#72,#416,#424,.T.);
#424 = LINE('',#425,#426);
#425 = CARTESIAN_POINT('',(172.8449566984,41.344956698407,0.));
#426 = VECTOR('',#427,1.);
#427 = DIRECTION('',(-0.707106781187,-0.707106781187,0.));
#428 = ORIENTED_EDGE('',*,*,#79,.F.);
#429 = ORIENTED_EDGE('',*,*,#338,.T.);
#430 = ORIENTED_EDGE('',*,*,#431,.F.);
#431 = EDGE_CURVE('',#432,#339,#434,.T.);
#432 = VERTEX_POINT('',#433);
#433 = CARTESIAN_POINT('',(2.,101.55,0.));
#434 = LINE('',#435,#436);
#435 = CARTESIAN_POINT('',(0.,101.55,0.));
#436 = VECTOR('',#437,1.);
#437 = DIRECTION('',(1.,0.,0.));
#438 = ORIENTED_EDGE('',*,*,#439,.F.);
#439 = EDGE_CURVE('',#366,#432,#440,.T.);
#440 = CIRCLE('',#441,2.);
#441 = AXIS2_PLACEMENT_3D('',#442,#443,#444);
#442 = CARTESIAN_POINT('',(2.,99.55,0.));
#443 = DIRECTION('',(-0.,-0.,-1.));
#444 = DIRECTION('',(0.,-1.,0.));
#445 = FACE_BOUND('',#446,.F.);
#446 = EDGE_LOOP('',(#447));
#447 = ORIENTED_EDGE('',*,*,#448,.T.);
#448 = EDGE_CURVE('',#449,#449,#451,.T.);
#449 = VERTEX_POINT('',#450);
#450 = CARTESIAN_POINT('',(192.74935,97.8417,0.));
#451 = CIRCLE('',#452,1.75);
#452 = AXIS2_PLACEMENT_3D('',#453,#454,#455);
#453 = CARTESIAN_POINT('',(190.99935,97.8417,0.));
#454 = DIRECTION('',(0.,0.,-1.));
#455 = DIRECTION('',(1.,0.,0.));
#456 = PLANE('',#457);
#457 = AXIS2_PLACEMENT_3D('',#458,#459,#460);
#458 = CARTESIAN_POINT('',(103.30241339681,52.577413396815,0.));
#459 = DIRECTION('',(0.,0.,1.));
#460 = DIRECTION('',(1.,0.,0.));
#461 = ADVANCED_FACE('',(#462),#480,.F.);
#462 = FACE_BOUND('',#463,.T.);
#463 = EDGE_LOOP('',(#464,#465,#466,#474));
#464 = ORIENTED_EDGE('',*,*,#423,.F.);
#465 = ORIENTED_EDGE('',*,*,#71,.T.);
#466 = ORIENTED_EDGE('',*,*,#467,.T.);
#467 = EDGE_CURVE('',#64,#468,#470,.T.);
#468 = VERTEX_POINT('',#469);
#469 = CARTESIAN_POINT('',(201.,69.5,3.620616018514));
#470 = LINE('',#471,#472);
#471 = CARTESIAN_POINT('',(172.16253856262,40.662538562621,
    -30.74653225077));
#472 = VECTOR('',#473,1.);
#473 = DIRECTION('',(-0.540716203061,-0.540716203061,-0.644400477572));
#474 = ORIENTED_EDGE('',*,*,#475,.F.);
#475 = EDGE_CURVE('',#416,#468,#476,.T.);
#476 = LINE('',#477,#478);
#477 = CARTESIAN_POINT('',(201.,69.5,0.));
#478 = VECTOR('',#479,1.);
#479 = DIRECTION('',(0.,0.,1.));
#480 = PLANE('',#481);
#481 = AXIS2_PLACEMENT_3D('',#482,#483,#484);
#482 = CARTESIAN_POINT('',(202.,70.5,0.));
#483 = DIRECTION('',(-0.707106781187,0.707106781187,0.));
#484 = DIRECTION('',(-0.,-0.,-1.));
#485 = ADVANCED_FACE('',(#486),#520,.F.);
#486 = FACE_BOUND('',#487,.F.);
#487 = EDGE_LOOP('',(#488,#498,#504,#505,#506,#514));
#488 = ORIENTED_EDGE('',*,*,#489,.T.);
#489 = EDGE_CURVE('',#490,#492,#494,.T.);
#490 = VERTEX_POINT('',#491);
#491 = CARTESIAN_POINT('',(19.2224,71.5,6.004123203703));
#492 = VERTEX_POINT('',#493);
#493 = CARTESIAN_POINT('',(19.2224,72.,6.6));
#494 = LINE('',#495,#496);
#495 = CARTESIAN_POINT('',(19.2224,72.869663729408,7.636424873871));
#496 = VECTOR('',#497,1.);
#497 = DIRECTION('',(0.,0.642787609687,0.766044443119));
#498 = ORIENTED_EDGE('',*,*,#499,.T.);
#499 = EDGE_CURVE('',#492,#56,#500,.T.);
#500 = LINE('',#501,#502);
#501 = CARTESIAN_POINT('',(0.,72.,6.6));
#502 = VECTOR('',#503,1.);
#503 = DIRECTION('',(1.,0.,0.));
#504 = ORIENTED_EDGE('',*,*,#63,.F.);
#505 = ORIENTED_EDGE('',*,*,#467,.T.);
#506 = ORIENTED_EDGE('',*,*,#507,.F.);
#507 = EDGE_CURVE('',#508,#468,#510,.T.);
#508 = VERTEX_POINT('',#509);
#509 = CARTESIAN_POINT('',(21.2224,69.5,3.620616018514));
#510 = LINE('',#511,#512);
#511 = CARTESIAN_POINT('',(0.,69.5,3.620616018514));
#512 = VECTOR('',#513,1.);
#513 = DIRECTION('',(1.,0.,0.));
#514 = ORIENTED_EDGE('',*,*,#515,.T.);
#515 = EDGE_CURVE('',#508,#490,#516,.T.);
#516 = LINE('',#517,#518);
#517 = CARTESIAN_POINT('',(17.573834087174,73.148565912826,
    7.968807552941));
#518 = VECTOR('',#519,1.);
#519 = DIRECTION('',(-0.540716203061,0.540716203061,0.644400477572));
#520 = PLANE('',#521);
#521 = AXIS2_PLACEMENT_3D('',#522,#523,#524);
#522 = CARTESIAN_POINT('',(0.,72.,6.6));
#523 = DIRECTION('',(0.,0.766044443119,-0.642787609687));
#524 = DIRECTION('',(0.,-0.642787609687,-0.766044443119));
#525 = ADVANCED_FACE('',(#526),#544,.F.);
#526 = FACE_BOUND('',#527,.F.);
#527 = EDGE_LOOP('',(#528,#536,#542,#543));
#528 = ORIENTED_EDGE('',*,*,#529,.T.);
#529 = EDGE_CURVE('',#492,#530,#532,.T.);
#530 = VERTEX_POINT('',#531);
#531 = CARTESIAN_POINT('',(19.2224,72.,7.6));
#532 = LINE('',#533,#534);
#533 = CARTESIAN_POINT('',(19.2224,72.,7.6));
#534 = VECTOR('',#535,1.);
#535 = DIRECTION('',(0.,0.,1.));
#536 = ORIENTED_EDGE('',*,*,#537,.T.);
#537 = EDGE_CURVE('',#530,#48,#538,.T.);
#538 = LINE('',#539,#540);
#539 = CARTESIAN_POINT('',(0.,72.,7.6));
#540 = VECTOR('',#541,1.);
#541 = DIRECTION('',(1.,0.,0.));
#542 = ORIENTED_EDGE('',*,*,#55,.F.);
#543 = ORIENTED_EDGE('',*,*,#499,.F.);
#544 = PLANE('',#545);
#545 = AXIS2_PLACEMENT_3D('',#546,#547,#548);
#546 = CARTESIAN_POINT('',(0.,72.,7.6));
#547 = DIRECTION('',(0.,1.,0.));
#548 = DIRECTION('',(0.,0.,-1.));
#549 = ADVANCED_FACE('',(#550,#718,#729,#740),#751,.T.);
#550 = FACE_BOUND('',#551,.T.);
#551 = EDGE_LOOP('',(#552,#562,#571,#579,#588,#594,#595,#596,#605,#613,
    #621,#629,#637,#645,#653,#661,#669,#677,#686,#694,#703,#711));
#552 = ORIENTED_EDGE('',*,*,#553,.T.);
#553 = EDGE_CURVE('',#554,#556,#558,.T.);
#554 = VERTEX_POINT('',#555);
#555 = CARTESIAN_POINT('',(0.,58.3,7.6));
#556 = VERTEX_POINT('',#557);
#557 = CARTESIAN_POINT('',(0.,79.0179,7.6));
#558 = LINE('',#559,#560);
#559 = CARTESIAN_POINT('',(0.,50.136454725147,7.6));
#560 = VECTOR('',#561,1.);
#561 = DIRECTION('',(0.,1.,0.));
#562 = ORIENTED_EDGE('',*,*,#563,.T.);
#563 = EDGE_CURVE('',#556,#564,#566,.T.);
#564 = VERTEX_POINT('',#565);
#565 = CARTESIAN_POINT('',(2.,77.0179,7.6));
#566 = CIRCLE('',#567,2.);
#567 = AXIS2_PLACEMENT_3D('',#568,#569,#570);
#568 = CARTESIAN_POINT('',(2.,79.0179,7.6));
#569 = DIRECTION('',(-0.,0.,1.));
#570 = DIRECTION('',(0.,-1.,0.));
#571 = ORIENTED_EDGE('',*,*,#572,.T.);
#572 = EDGE_CURVE('',#564,#573,#575,.T.);
#573 = VERTEX_POINT('',#574);
#574 = CARTESIAN_POINT('',(17.2224,77.0179,7.6));
#575 = LINE('',#576,#577);
#576 = CARTESIAN_POINT('',(-7.977064095238,77.0179,7.6));
#577 = VECTOR('',#578,1.);
#578 = DIRECTION('',(1.,0.,0.));
#579 = ORIENTED_EDGE('',*,*,#580,.T.);
#580 = EDGE_CURVE('',#573,#581,#583,.T.);
#581 = VERTEX_POINT('',#582);
#582 = CARTESIAN_POINT('',(19.2224,75.0179,7.6));
#583 = CIRCLE('',#584,2.);
#584 = AXIS2_PLACEMENT_3D('',#585,#586,#587);
#585 = CARTESIAN_POINT('',(17.2224,75.0179,7.6));
#586 = DIRECTION('',(0.,0.,-1.));
#587 = DIRECTION('',(1.,0.,0.));
#588 = ORIENTED_EDGE('',*,*,#589,.T.);
#589 = EDGE_CURVE('',#581,#530,#590,.T.);
#590 = LINE('',#591,#592);
#591 = CARTESIAN_POINT('',(19.2224,75.0179,7.6));
#592 = VECTOR('',#593,1.);
#593 = DIRECTION('',(0.,-1.,0.));
#594 = ORIENTED_EDGE('',*,*,#537,.T.);
#595 = ORIENTED_EDGE('',*,*,#47,.T.);
#596 = ORIENTED_EDGE('',*,*,#597,.T.);
#597 = EDGE_CURVE('',#40,#598,#600,.T.);
#598 = VERTEX_POINT('',#599);
#599 = CARTESIAN_POINT('',(201.,36.,7.6));
#600 = CIRCLE('',#601,2.);
#601 = AXIS2_PLACEMENT_3D('',#602,#603,#604);
#602 = CARTESIAN_POINT('',(201.,34.,7.6));
#603 = DIRECTION('',(0.,-0.,1.));
#604 = DIRECTION('',(0.,1.,0.));
#605 = ORIENTED_EDGE('',*,*,#606,.F.);
#606 = EDGE_CURVE('',#607,#598,#609,.T.);
#607 = VERTEX_POINT('',#608);
#608 = CARTESIAN_POINT('',(152.5,36.,7.6));
#609 = LINE('',#610,#611);
#610 = CARTESIAN_POINT('',(0.,36.,7.6));
#611 = VECTOR('',#612,1.);
#612 = DIRECTION('',(1.,0.,0.));
#613 = ORIENTED_EDGE('',*,*,#614,.F.);
#614 = EDGE_CURVE('',#615,#607,#617,.T.);
#615 = VERTEX_POINT('',#616);
#616 = CARTESIAN_POINT('',(152.5,2.E-15,7.6));
#617 = LINE('',#618,#619);
#618 = CARTESIAN_POINT('',(152.5,1.69E-15,7.6));
#619 = VECTOR('',#620,1.);
#620 = DIRECTION('',(0.,1.,-2.2E-16));
#621 = ORIENTED_EDGE('',*,*,#622,.F.);
#622 = EDGE_CURVE('',#623,#615,#625,.T.);
#623 = VERTEX_POINT('',#624);
#624 = CARTESIAN_POINT('',(127.5,2.E-15,7.6));
#625 = LINE('',#626,#627);
#626 = CARTESIAN_POINT('',(127.5,0.,7.6));
#627 = VECTOR('',#628,1.);
#628 = DIRECTION('',(1.,0.,0.));
#629 = ORIENTED_EDGE('',*,*,#630,.T.);
#630 = EDGE_CURVE('',#623,#631,#633,.T.);
#631 = VERTEX_POINT('',#632);
#632 = CARTESIAN_POINT('',(127.5,36.,7.6));
#633 = LINE('',#634,#635);
#634 = CARTESIAN_POINT('',(127.5,1.69E-15,7.6));
#635 = VECTOR('',#636,1.);
#636 = DIRECTION('',(0.,1.,-2.2E-16));
#637 = ORIENTED_EDGE('',*,*,#638,.F.);
#638 = EDGE_CURVE('',#639,#631,#641,.T.);
#639 = VERTEX_POINT('',#640);
#640 = CARTESIAN_POINT('',(77.5,36.,7.6));
#641 = LINE('',#642,#643);
#642 = CARTESIAN_POINT('',(0.,36.,7.6));
#643 = VECTOR('',#644,1.);
#644 = DIRECTION('',(1.,0.,0.));
#645 = ORIENTED_EDGE('',*,*,#646,.F.);
#646 = EDGE_CURVE('',#647,#639,#649,.T.);
#647 = VERTEX_POINT('',#648);
#648 = CARTESIAN_POINT('',(77.5,2.E-15,7.6));
#649 = LINE('',#650,#651);
#650 = CARTESIAN_POINT('',(77.5,1.69E-15,7.6));
#651 = VECTOR('',#652,1.);
#652 = DIRECTION('',(0.,1.,-2.2E-16));
#653 = ORIENTED_EDGE('',*,*,#654,.F.);
#654 = EDGE_CURVE('',#655,#647,#657,.T.);
#655 = VERTEX_POINT('',#656);
#656 = CARTESIAN_POINT('',(52.5,2.E-15,7.6));
#657 = LINE('',#658,#659);
#658 = CARTESIAN_POINT('',(52.5,0.,7.6));
#659 = VECTOR('',#660,1.);
#660 = DIRECTION('',(1.,0.,0.));
#661 = ORIENTED_EDGE('',*,*,#662,.T.);
#662 = EDGE_CURVE('',#655,#663,#665,.T.);
#663 = VERTEX_POINT('',#664);
#664 = CARTESIAN_POINT('',(52.5,36.,7.6));
#665 = LINE('',#666,#667);
#666 = CARTESIAN_POINT('',(52.5,1.69E-15,7.6));
#667 = VECTOR('',#668,1.);
#668 = DIRECTION('',(0.,1.,-2.2E-16));
#669 = ORIENTED_EDGE('',*,*,#670,.F.);
#670 = EDGE_CURVE('',#671,#663,#673,.T.);
#671 = VERTEX_POINT('',#672);
#672 = CARTESIAN_POINT('',(21.5,36.,7.6));
#673 = LINE('',#674,#675);
#674 = CARTESIAN_POINT('',(0.,36.,7.6));
#675 = VECTOR('',#676,1.);
#676 = DIRECTION('',(1.,0.,0.));
#677 = ORIENTED_EDGE('',*,*,#678,.F.);
#678 = EDGE_CURVE('',#679,#671,#681,.T.);
#679 = VERTEX_POINT('',#680);
#680 = CARTESIAN_POINT('',(19.5,34.,7.6));
#681 = CIRCLE('',#682,2.);
#682 = AXIS2_PLACEMENT_3D('',#683,#684,#685);
#683 = CARTESIAN_POINT('',(21.5,34.,7.6));
#684 = DIRECTION('',(-0.,-0.,-1.));
#685 = DIRECTION('',(0.,-1.,0.));
#686 = ORIENTED_EDGE('',*,*,#687,.T.);
#687 = EDGE_CURVE('',#679,#688,#690,.T.);
#688 = VERTEX_POINT('',#689);
#689 = CARTESIAN_POINT('',(19.5,54.3,7.6));
#690 = LINE('',#691,#692);
#691 = CARTESIAN_POINT('',(19.5,18.,7.6));
#692 = VECTOR('',#693,1.);
#693 = DIRECTION('',(0.,1.,0.));
#694 = ORIENTED_EDGE('',*,*,#695,.T.);
#695 = EDGE_CURVE('',#688,#696,#698,.T.);
#696 = VERTEX_POINT('',#697);
#697 = CARTESIAN_POINT('',(17.5,56.3,7.6));
#698 = CIRCLE('',#699,2.);
#699 = AXIS2_PLACEMENT_3D('',#700,#701,#702);
#700 = CARTESIAN_POINT('',(17.5,54.3,7.6));
#701 = DIRECTION('',(-0.,0.,1.));
#702 = DIRECTION('',(0.,-1.,0.));
#703 = ORIENTED_EDGE('',*,*,#704,.T.);
#704 = EDGE_CURVE('',#696,#705,#707,.T.);
#705 = VERTEX_POINT('',#706);
#706 = CARTESIAN_POINT('',(2.,56.3,7.6));
#707 = LINE('',#708,#709);
#708 = CARTESIAN_POINT('',(9.75,56.3,7.6));
#709 = VECTOR('',#710,1.);
#710 = DIRECTION('',(-1.,0.,0.));
#711 = ORIENTED_EDGE('',*,*,#712,.T.);
#712 = EDGE_CURVE('',#705,#554,#713,.T.);
#713 = CIRCLE('',#714,2.);
#714 = AXIS2_PLACEMENT_3D('',#715,#716,#717);
#715 = CARTESIAN_POINT('',(2.,58.3,7.6));
#716 = DIRECTION('',(-0.,-0.,-1.));
#717 = DIRECTION('',(0.,-1.,0.));
#718 = FACE_BOUND('',#719,.T.);
#719 = EDGE_LOOP('',(#720));
#720 = ORIENTED_EDGE('',*,*,#721,.F.);
#721 = EDGE_CURVE('',#722,#722,#724,.T.);
#722 = VERTEX_POINT('',#723);
#723 = CARTESIAN_POINT('',(138.625,13.,7.6));
#724 = CIRCLE('',#725,1.375);
#725 = AXIS2_PLACEMENT_3D('',#726,#727,#728);
#726 = CARTESIAN_POINT('',(140.,13.,7.6));
#727 = DIRECTION('',(0.,0.,-1.));
#728 = DIRECTION('',(-1.,0.,0.));
#729 = FACE_BOUND('',#730,.T.);
#730 = EDGE_LOOP('',(#731));
#731 = ORIENTED_EDGE('',*,*,#732,.F.);
#732 = EDGE_CURVE('',#733,#733,#735,.T.);
#733 = VERTEX_POINT('',#734);
#734 = CARTESIAN_POINT('',(63.625,13.,7.6));
#735 = CIRCLE('',#736,1.375);
#736 = AXIS2_PLACEMENT_3D('',#737,#738,#739);
#737 = CARTESIAN_POINT('',(65.,13.,7.6));
#738 = DIRECTION('',(0.,0.,-1.));
#739 = DIRECTION('',(-1.,0.,0.));
#740 = FACE_BOUND('',#741,.T.);
#741 = EDGE_LOOP('',(#742));
#742 = ORIENTED_EDGE('',*,*,#743,.F.);
#743 = EDGE_CURVE('',#744,#744,#746,.T.);
#744 = VERTEX_POINT('',#745);
#745 = CARTESIAN_POINT('',(4.99935,71.9667,7.6));
#746 = CIRCLE('',#747,1.75);
#747 = AXIS2_PLACEMENT_3D('',#748,#749,#750);
#748 = CARTESIAN_POINT('',(3.24935,71.9667,7.6));
#749 = DIRECTION('',(0.,0.,-1.));
#750 = DIRECTION('',(1.,0.,0.));
#751 = PLANE('',#752);
#752 = AXIS2_PLACEMENT_3D('',#753,#754,#755);
#753 = CARTESIAN_POINT('',(100.87470942291,44.048736051584,7.6));
#754 = DIRECTION('',(-0.,-0.,-1.));
#755 = DIRECTION('',(-1.,0.,0.));
#756 = ADVANCED_FACE('',(#757),#776,.T.);
#757 = FACE_BOUND('',#758,.F.);
#758 = EDGE_LOOP('',(#759,#760,#761,#769));
#759 = ORIENTED_EDGE('',*,*,#39,.F.);
#760 = ORIENTED_EDGE('',*,*,#597,.T.);
#761 = ORIENTED_EDGE('',*,*,#762,.T.);
#762 = EDGE_CURVE('',#598,#763,#765,.T.);
#763 = VERTEX_POINT('',#764);
#764 = CARTESIAN_POINT('',(201.,36.,6.6));
#765 = LINE('',#766,#767);
#766 = CARTESIAN_POINT('',(201.,36.,7.6));
#767 = VECTOR('',#768,1.);
#768 = DIRECTION('',(0.,0.,-1.));
#769 = ORIENTED_EDGE('',*,*,#770,.T.);
#770 = EDGE_CURVE('',#763,#32,#771,.T.);
#771 = ELLIPSE('',#772,3.111447653721,2.);
#772 = AXIS2_PLACEMENT_3D('',#773,#774,#775);
#773 = CARTESIAN_POINT('',(201.,34.,4.216492814812));
#774 = DIRECTION('',(0.,0.766044443119,-0.642787609687));
#775 = DIRECTION('',(0.,-0.642787609687,-0.766044443119));
#776 = CYLINDRICAL_SURFACE('',#777,2.);
#777 = AXIS2_PLACEMENT_3D('',#778,#779,#780);
#778 = CARTESIAN_POINT('',(201.,34.,7.6));
#779 = DIRECTION('',(0.,0.,-1.));
#780 = DIRECTION('',(1.,0.,0.));
#781 = ADVANCED_FACE('',(#782),#810,.T.);
#782 = FACE_BOUND('',#783,.T.);
#783 = EDGE_LOOP('',(#784,#785,#786,#795,#803,#809));
#784 = ORIENTED_EDGE('',*,*,#31,.F.);
#785 = ORIENTED_EDGE('',*,*,#117,.T.);
#786 = ORIENTED_EDGE('',*,*,#787,.T.);
#787 = EDGE_CURVE('',#118,#788,#790,.T.);
#788 = VERTEX_POINT('',#789);
#789 = CARTESIAN_POINT('',(149.55551362713,31.720591880996,1.5));
#790 = ELLIPSE('',#791,1.305407289332,1.);
#791 = AXIS2_PLACEMENT_3D('',#792,#793,#794);
#792 = CARTESIAN_POINT('',(150.42153903091,31.301042065407,1.));
#793 = DIRECTION('',(0.,0.766044443119,-0.642787609687));
#794 = DIRECTION('',(0.,0.642787609687,0.766044443119));
#795 = ORIENTED_EDGE('',*,*,#796,.F.);
#796 = EDGE_CURVE('',#797,#788,#799,.T.);
#797 = VERTEX_POINT('',#798);
#798 = CARTESIAN_POINT('',(152.5,36.,6.6));
#799 = LINE('',#800,#801);
#800 = CARTESIAN_POINT('',(135.81701063528,11.753557294572,
    -22.29578520182));
#801 = VECTOR('',#802,1.);
#802 = DIRECTION('',(-0.404481746652,-0.587858883153,-0.700582935936));
#803 = ORIENTED_EDGE('',*,*,#804,.T.);
#804 = EDGE_CURVE('',#797,#763,#805,.T.);
#805 = LINE('',#806,#807);
#806 = CARTESIAN_POINT('',(0.,36.,6.6));
#807 = VECTOR('',#808,1.);
#808 = DIRECTION('',(1.,0.,0.));
#809 = ORIENTED_EDGE('',*,*,#770,.T.);
#810 = PLANE('',#811);
#811 = AXIS2_PLACEMENT_3D('',#812,#813,#814);
#812 = CARTESIAN_POINT('',(0.,36.25,6.897938398149));
#813 = DIRECTION('',(0.,0.766044443119,-0.642787609687));
#814 = DIRECTION('',(0.,-0.642787609687,-0.766044443119));
#815 = ADVANCED_FACE('',(#816),#937,.T.);
#816 = FACE_BOUND('',#817,.T.);
#817 = EDGE_LOOP('',(#818,#826,#827,#828,#829,#837,#845,#853,#861,#867,
    #868,#876,#884,#892,#900,#908,#916,#922,#923,#931));
#818 = ORIENTED_EDGE('',*,*,#819,.T.);
#819 = EDGE_CURVE('',#820,#134,#822,.T.);
#820 = VERTEX_POINT('',#821);
#821 = CARTESIAN_POINT('',(151.99973206661,0.,5.733510521982));
#822 = LINE('',#823,#824);
#823 = CARTESIAN_POINT('',(151.99973206661,-4.4E-16,3.8));
#824 = VECTOR('',#825,1.);
#825 = DIRECTION('',(0.,0.,-1.));
#826 = ORIENTED_EDGE('',*,*,#141,.F.);
#827 = ORIENTED_EDGE('',*,*,#187,.T.);
#828 = ORIENTED_EDGE('',*,*,#220,.T.);
#829 = ORIENTED_EDGE('',*,*,#830,.F.);
#830 = EDGE_CURVE('',#831,#212,#833,.T.);
#831 = VERTEX_POINT('',#832);
#832 = CARTESIAN_POINT('',(21.5,0.,0.));
#833 = LINE('',#834,#835);
#834 = CARTESIAN_POINT('',(21.5,-4.4E-16,0.));
#835 = VECTOR('',#836,1.);
#836 = DIRECTION('',(0.,0.,1.));
#837 = ORIENTED_EDGE('',*,*,#838,.F.);
#838 = EDGE_CURVE('',#839,#831,#841,.T.);
#839 = VERTEX_POINT('',#840);
#840 = CARTESIAN_POINT('',(53.000267933383,0.,0.));
#841 = LINE('',#842,#843);
#842 = CARTESIAN_POINT('',(203.,0.,0.));
#843 = VECTOR('',#844,1.);
#844 = DIRECTION('',(-1.,0.,0.));
#845 = ORIENTED_EDGE('',*,*,#846,.F.);
#846 = EDGE_CURVE('',#847,#839,#849,.T.);
#847 = VERTEX_POINT('',#848);
#848 = CARTESIAN_POINT('',(53.000267933383,0.,5.733510521982));
#849 = LINE('',#850,#851);
#850 = CARTESIAN_POINT('',(53.000267933383,-4.4E-16,3.8));
#851 = VECTOR('',#852,1.);
#852 = DIRECTION('',(0.,0.,-1.));
#853 = ORIENTED_EDGE('',*,*,#854,.T.);
#854 = EDGE_CURVE('',#847,#855,#857,.T.);
#855 = VERTEX_POINT('',#856);
#856 = CARTESIAN_POINT('',(52.5,1.E-15,6.6));
#857 = LINE('',#858,#859);
#858 = CARTESIAN_POINT('',(56.31051177665,0.,0.));
#859 = VECTOR('',#860,1.);
#860 = DIRECTION('',(-0.5,0.,0.866025403785));
#861 = ORIENTED_EDGE('',*,*,#862,.T.);
#862 = EDGE_CURVE('',#855,#655,#863,.T.);
#863 = LINE('',#864,#865);
#864 = CARTESIAN_POINT('',(52.5,0.,6.6));
#865 = VECTOR('',#866,1.);
#866 = DIRECTION('',(-7.11E-15,0.,1.));
#867 = ORIENTED_EDGE('',*,*,#654,.T.);
#868 = ORIENTED_EDGE('',*,*,#869,.T.);
#869 = EDGE_CURVE('',#647,#870,#872,.T.);
#870 = VERTEX_POINT('',#871);
#871 = CARTESIAN_POINT('',(77.5,1.E-15,6.6));
#872 = LINE('',#873,#874);
#873 = CARTESIAN_POINT('',(77.5,0.,7.6));
#874 = VECTOR('',#875,1.);
#875 = DIRECTION('',(0.,0.,-1.));
#876 = ORIENTED_EDGE('',*,*,#877,.T.);
#877 = EDGE_CURVE('',#870,#878,#880,.T.);
#878 = VERTEX_POINT('',#879);
#879 = CARTESIAN_POINT('',(76.999732066617,0.,5.733510521982));
#880 = LINE('',#881,#882);
#881 = CARTESIAN_POINT('',(77.5,0.,6.6));
#882 = VECTOR('',#883,1.);
#883 = DIRECTION('',(-0.5,-0.,-0.866025403785));
#884 = ORIENTED_EDGE('',*,*,#885,.T.);
#885 = EDGE_CURVE('',#878,#886,#888,.T.);
#886 = VERTEX_POINT('',#887);
#887 = CARTESIAN_POINT('',(76.999732066617,0.,0.));
#888 = LINE('',#889,#890);
#889 = CARTESIAN_POINT('',(76.999732066616,-4.4E-16,3.8));
#890 = VECTOR('',#891,1.);
#891 = DIRECTION('',(0.,0.,-1.));
#892 = ORIENTED_EDGE('',*,*,#893,.F.);
#893 = EDGE_CURVE('',#894,#886,#896,.T.);
#894 = VERTEX_POINT('',#895);
#895 = CARTESIAN_POINT('',(128.00026793338,0.,0.));
#896 = LINE('',#897,#898);
#897 = CARTESIAN_POINT('',(203.,0.,0.));
#898 = VECTOR('',#899,1.);
#899 = DIRECTION('',(-1.,0.,0.));
#900 = ORIENTED_EDGE('',*,*,#901,.F.);
#901 = EDGE_CURVE('',#902,#894,#904,.T.);
#902 = VERTEX_POINT('',#903);
#903 = CARTESIAN_POINT('',(128.00026793338,0.,5.733510521982));
#904 = LINE('',#905,#906);
#905 = CARTESIAN_POINT('',(128.00026793338,-4.4E-16,3.8));
#906 = VECTOR('',#907,1.);
#907 = DIRECTION('',(0.,0.,-1.));
#908 = ORIENTED_EDGE('',*,*,#909,.T.);
#909 = EDGE_CURVE('',#902,#910,#912,.T.);
#910 = VERTEX_POINT('',#911);
#911 = CARTESIAN_POINT('',(127.5,1.E-15,6.6));
#912 = LINE('',#913,#914);
#913 = CARTESIAN_POINT('',(131.31051177665,0.,0.));
#914 = VECTOR('',#915,1.);
#915 = DIRECTION('',(-0.5,0.,0.866025403785));
#916 = ORIENTED_EDGE('',*,*,#917,.T.);
#917 = EDGE_CURVE('',#910,#623,#918,.T.);
#918 = LINE('',#919,#920);
#919 = CARTESIAN_POINT('',(127.5,0.,6.6));
#920 = VECTOR('',#921,1.);
#921 = DIRECTION('',(-7.11E-15,0.,1.));
#922 = ORIENTED_EDGE('',*,*,#622,.T.);
#923 = ORIENTED_EDGE('',*,*,#924,.T.);
#924 = EDGE_CURVE('',#615,#925,#927,.T.);
#925 = VERTEX_POINT('',#926);
#926 = CARTESIAN_POINT('',(152.5,1.E-15,6.6));
#927 = LINE('',#928,#929);
#928 = CARTESIAN_POINT('',(152.5,0.,7.6));
#929 = VECTOR('',#930,1.);
#930 = DIRECTION('',(0.,0.,-1.));
#931 = ORIENTED_EDGE('',*,*,#932,.T.);
#932 = EDGE_CURVE('',#925,#820,#933,.T.);
#933 = LINE('',#934,#935);
#934 = CARTESIAN_POINT('',(152.5,0.,6.6));
#935 = VECTOR('',#936,1.);
#936 = DIRECTION('',(-0.5,-0.,-0.866025403785));
#937 = PLANE('',#938);
#938 = AXIS2_PLACEMENT_3D('',#939,#940,#941);
#939 = CARTESIAN_POINT('',(203.,0.,0.));
#940 = DIRECTION('',(0.,-1.,0.));
#941 = DIRECTION('',(-1.,0.,0.));
#942 = ADVANCED_FACE('',(#943),#962,.T.);
#943 = FACE_BOUND('',#944,.T.);
#944 = EDGE_LOOP('',(#945,#954,#955,#956));
#945 = ORIENTED_EDGE('',*,*,#946,.T.);
#946 = EDGE_CURVE('',#947,#126,#949,.T.);
#947 = VERTEX_POINT('',#948);
#948 = CARTESIAN_POINT('',(149.55551362713,2.444218439482,1.5));
#949 = ELLIPSE('',#950,1.414213562373,1.);
#950 = AXIS2_PLACEMENT_3D('',#951,#952,#953);
#951 = CARTESIAN_POINT('',(150.42153903091,1.578193035698,1.));
#952 = DIRECTION('',(-0.707106781187,-0.707106781187,0.));
#953 = DIRECTION('',(-0.707106781187,0.707106781187,-3.1E-16));
#954 = ORIENTED_EDGE('',*,*,#133,.T.);
#955 = ORIENTED_EDGE('',*,*,#819,.F.);
#956 = ORIENTED_EDGE('',*,*,#957,.F.);
#957 = EDGE_CURVE('',#947,#820,#958,.T.);
#958 = LINE('',#959,#960);
#959 = CARTESIAN_POINT('',(151.78769428741,0.212037779198,5.366250315288
    ));
#960 = VECTOR('',#961,1.);
#961 = DIRECTION('',(0.4472135955,-0.4472135955,0.774596669242));
#962 = PLANE('',#963);
#963 = AXIS2_PLACEMENT_3D('',#964,#965,#966);
#964 = CARTESIAN_POINT('',(148.32258,3.677152066617,7.6));
#965 = DIRECTION('',(-0.707106781187,-0.707106781187,0.));
#966 = DIRECTION('',(0.707106781187,-0.707106781187,0.));
#967 = ADVANCED_FACE('',(#968),#979,.T.);
#968 = FACE_BOUND('',#969,.T.);
#969 = EDGE_LOOP('',(#970,#971,#972,#978));
#970 = ORIENTED_EDGE('',*,*,#125,.F.);
#971 = ORIENTED_EDGE('',*,*,#946,.F.);
#972 = ORIENTED_EDGE('',*,*,#973,.T.);
#973 = EDGE_CURVE('',#947,#788,#974,.T.);
#974 = LINE('',#975,#976);
#975 = CARTESIAN_POINT('',(149.55551362713,-1.1E-16,1.5));
#976 = VECTOR('',#977,1.);
#977 = DIRECTION('',(0.,1.,-2.2E-16));
#978 = ORIENTED_EDGE('',*,*,#787,.F.);
#979 = CYLINDRICAL_SURFACE('',#980,1.);
#980 = AXIS2_PLACEMENT_3D('',#981,#982,#983);
#981 = CARTESIAN_POINT('',(150.42153903091,-2.2E-16,1.));
#982 = DIRECTION('',(0.,1.,-2.2E-16));
#983 = DIRECTION('',(0.,-2.2E-16,-1.));
#984 = ADVANCED_FACE('',(#985),#1004,.F.);
#985 = FACE_BOUND('',#986,.T.);
#986 = EDGE_LOOP('',(#987,#995,#1002,#1003));
#987 = ORIENTED_EDGE('',*,*,#988,.F.);
#988 = EDGE_CURVE('',#989,#160,#991,.T.);
#989 = VERTEX_POINT('',#990);
#990 = CARTESIAN_POINT('',(193.62435,2.8417,11.));
#991 = LINE('',#992,#993);
#992 = CARTESIAN_POINT('',(193.62435,2.8417,11.));
#993 = VECTOR('',#994,1.);
#994 = DIRECTION('',(-6.142093202436E-17,0.,-1.));
#995 = ORIENTED_EDGE('',*,*,#996,.T.);
#996 = EDGE_CURVE('',#989,#989,#997,.T.);
#997 = CIRCLE('',#998,1.75);
#998 = AXIS2_PLACEMENT_3D('',#999,#1000,#1001);
#999 = CARTESIAN_POINT('',(191.87435,2.8417,11.));
#1000 = DIRECTION('',(0.,0.,1.));
#1001 = DIRECTION('',(1.,0.,0.));
#1002 = ORIENTED_EDGE('',*,*,#988,.T.);
#1003 = ORIENTED_EDGE('',*,*,#159,.T.);
#1004 = CYLINDRICAL_SURFACE('',#1005,1.75);
#1005 = AXIS2_PLACEMENT_3D('',#1006,#1007,#1008);
#1006 = CARTESIAN_POINT('',(191.87435,2.8417,11.));
#1007 = DIRECTION('',(-0.,-0.,-1.));
#1008 = DIRECTION('',(1.,0.,0.));
#1009 = ADVANCED_FACE('',(#1010),#1050,.T.);
#1010 = FACE_BOUND('',#1011,.T.);
#1011 = EDGE_LOOP('',(#1012,#1022,#1028,#1029,#1035,#1036,#1044));
#1012 = ORIENTED_EDGE('',*,*,#1013,.F.);
#1013 = EDGE_CURVE('',#1014,#1016,#1018,.T.);
#1014 = VERTEX_POINT('',#1015);
#1015 = CARTESIAN_POINT('',(19.5,2.,0.));
#1016 = VERTEX_POINT('',#1017);
#1017 = CARTESIAN_POINT('',(19.5,30.46194243423,0.));
#1018 = LINE('',#1019,#1020);
#1019 = CARTESIAN_POINT('',(19.5,0.,0.));
#1020 = VECTOR('',#1021,1.);
#1021 = DIRECTION('',(0.,1.,0.));
#1022 = ORIENTED_EDGE('',*,*,#1023,.T.);
#1023 = EDGE_CURVE('',#1014,#202,#1024,.T.);
#1024 = LINE('',#1025,#1026);
#1025 = CARTESIAN_POINT('',(19.5,2.,0.));
#1026 = VECTOR('',#1027,1.);
#1027 = DIRECTION('',(0.,0.,1.));
#1028 = ORIENTED_EDGE('',*,*,#201,.T.);
#1029 = ORIENTED_EDGE('',*,*,#1030,.F.);
#1030 = EDGE_CURVE('',#688,#204,#1031,.T.);
#1031 = LINE('',#1032,#1033);
#1032 = CARTESIAN_POINT('',(19.5,54.3,7.6));
#1033 = VECTOR('',#1034,1.);
#1034 = DIRECTION('',(0.,0.,1.));
#1035 = ORIENTED_EDGE('',*,*,#687,.F.);
#1036 = ORIENTED_EDGE('',*,*,#1037,.F.);
#1037 = EDGE_CURVE('',#1038,#679,#1040,.T.);
#1038 = VERTEX_POINT('',#1039);
#1039 = CARTESIAN_POINT('',(19.5,34.,4.216492814812));
#1040 = LINE('',#1041,#1042);
#1041 = CARTESIAN_POINT('',(19.5,34.,0.));
#1042 = VECTOR('',#1043,1.);
#1043 = DIRECTION('',(0.,0.,1.));
#1044 = ORIENTED_EDGE('',*,*,#1045,.T.);
#1045 = EDGE_CURVE('',#1038,#1016,#1046,.T.);
#1046 = LINE('',#1047,#1048);
#1047 = CARTESIAN_POINT('',(19.5,27.062900806532,-4.050820071186));
#1048 = VECTOR('',#1049,1.);
#1049 = DIRECTION('',(-0.,-0.642787609687,-0.766044443119));
#1050 = PLANE('',#1051);
#1051 = AXIS2_PLACEMENT_3D('',#1052,#1053,#1054);
#1052 = CARTESIAN_POINT('',(19.5,0.,0.));
#1053 = DIRECTION('',(-1.,0.,0.));
#1054 = DIRECTION('',(0.,1.,0.));
#1055 = ADVANCED_FACE('',(#1056),#1068,.T.);
#1056 = FACE_BOUND('',#1057,.T.);
#1057 = EDGE_LOOP('',(#1058,#1065,#1066,#1067));
#1058 = ORIENTED_EDGE('',*,*,#1059,.T.);
#1059 = EDGE_CURVE('',#1014,#831,#1060,.T.);
#1060 = CIRCLE('',#1061,2.);
#1061 = AXIS2_PLACEMENT_3D('',#1062,#1063,#1064);
#1062 = CARTESIAN_POINT('',(21.5,2.,0.));
#1063 = DIRECTION('',(-0.,0.,1.));
#1064 = DIRECTION('',(0.,-1.,0.));
#1065 = ORIENTED_EDGE('',*,*,#830,.T.);
#1066 = ORIENTED_EDGE('',*,*,#211,.F.);
#1067 = ORIENTED_EDGE('',*,*,#1023,.F.);
#1068 = CYLINDRICAL_SURFACE('',#1069,2.);
#1069 = AXIS2_PLACEMENT_3D('',#1070,#1071,#1072);
#1070 = CARTESIAN_POINT('',(21.5,2.,0.));
#1071 = DIRECTION('',(0.,0.,1.));
#1072 = DIRECTION('',(-1.,0.,0.));
#1073 = ADVANCED_FACE('',(#1074),#1085,.F.);
#1074 = FACE_BOUND('',#1075,.F.);
#1075 = EDGE_LOOP('',(#1076,#1077,#1083,#1084));
#1076 = ORIENTED_EDGE('',*,*,#695,.T.);
#1077 = ORIENTED_EDGE('',*,*,#1078,.T.);
#1078 = EDGE_CURVE('',#696,#272,#1079,.T.);
#1079 = LINE('',#1080,#1081);
#1080 = CARTESIAN_POINT('',(17.5,56.3,7.6));
#1081 = VECTOR('',#1082,1.);
#1082 = DIRECTION('',(0.,0.,1.));
#1083 = ORIENTED_EDGE('',*,*,#279,.F.);
#1084 = ORIENTED_EDGE('',*,*,#1030,.F.);
#1085 = CYLINDRICAL_SURFACE('',#1086,2.);
#1086 = AXIS2_PLACEMENT_3D('',#1087,#1088,#1089);
#1087 = CARTESIAN_POINT('',(17.5,54.3,7.6));
#1088 = DIRECTION('',(0.,0.,1.));
#1089 = DIRECTION('',(1.,0.,0.));
#1090 = ADVANCED_FACE('',(#1091),#1102,.T.);
#1091 = FACE_BOUND('',#1092,.T.);
#1092 = EDGE_LOOP('',(#1093,#1094,#1095,#1096));
#1093 = ORIENTED_EDGE('',*,*,#704,.F.);
#1094 = ORIENTED_EDGE('',*,*,#1078,.T.);
#1095 = ORIENTED_EDGE('',*,*,#271,.T.);
#1096 = ORIENTED_EDGE('',*,*,#1097,.F.);
#1097 = EDGE_CURVE('',#705,#263,#1098,.T.);
#1098 = LINE('',#1099,#1100);
#1099 = CARTESIAN_POINT('',(2.,56.3,7.6));
#1100 = VECTOR('',#1101,1.);
#1101 = DIRECTION('',(0.,0.,1.));
#1102 = PLANE('',#1103);
#1103 = AXIS2_PLACEMENT_3D('',#1104,#1105,#1106);
#1104 = CARTESIAN_POINT('',(19.5,56.3,0.));
#1105 = DIRECTION('',(0.,-1.,0.));
#1106 = DIRECTION('',(-1.,0.,0.));
#1107 = ADVANCED_FACE('',(#1108),#1119,.T.);
#1108 = FACE_BOUND('',#1109,.F.);
#1109 = EDGE_LOOP('',(#1110,#1111,#1117,#1118));
#1110 = ORIENTED_EDGE('',*,*,#712,.T.);
#1111 = ORIENTED_EDGE('',*,*,#1112,.T.);
#1112 = EDGE_CURVE('',#554,#255,#1113,.T.);
#1113 = LINE('',#1114,#1115);
#1114 = CARTESIAN_POINT('',(-4.4E-16,58.3,7.6));
#1115 = VECTOR('',#1116,1.);
#1116 = DIRECTION('',(0.,0.,1.));
#1117 = ORIENTED_EDGE('',*,*,#262,.F.);
#1118 = ORIENTED_EDGE('',*,*,#1097,.F.);
#1119 = CYLINDRICAL_SURFACE('',#1120,2.);
#1120 = AXIS2_PLACEMENT_3D('',#1121,#1122,#1123);
#1121 = CARTESIAN_POINT('',(2.,58.3,7.6));
#1122 = DIRECTION('',(0.,0.,1.));
#1123 = DIRECTION('',(0.,-1.,0.));
#1124 = ADVANCED_FACE('',(#1125),#1143,.T.);
#1125 = FACE_BOUND('',#1126,.T.);
#1126 = EDGE_LOOP('',(#1127,#1128,#1134,#1135,#1136,#1137));
#1127 = ORIENTED_EDGE('',*,*,#363,.F.);
#1128 = ORIENTED_EDGE('',*,*,#1129,.T.);
#1129 = EDGE_CURVE('',#364,#556,#1130,.T.);
#1130 = LINE('',#1131,#1132);
#1131 = CARTESIAN_POINT('',(-4.4E-16,79.0179,0.));
#1132 = VECTOR('',#1133,1.);
#1133 = DIRECTION('',(0.,0.,1.));
#1134 = ORIENTED_EDGE('',*,*,#553,.F.);
#1135 = ORIENTED_EDGE('',*,*,#1112,.T.);
#1136 = ORIENTED_EDGE('',*,*,#254,.T.);
#1137 = ORIENTED_EDGE('',*,*,#1138,.F.);
#1138 = EDGE_CURVE('',#366,#246,#1139,.T.);
#1139 = LINE('',#1140,#1141);
#1140 = CARTESIAN_POINT('',(-4.4E-16,99.55,0.));
#1141 = VECTOR('',#1142,1.);
#1142 = DIRECTION('',(0.,0.,1.));
#1143 = PLANE('',#1144);
#1144 = AXIS2_PLACEMENT_3D('',#1145,#1146,#1147);
#1145 = CARTESIAN_POINT('',(0.,56.3,0.));
#1146 = DIRECTION('',(-1.,0.,0.));
#1147 = DIRECTION('',(0.,1.,0.));
#1148 = ADVANCED_FACE('',(#1149),#1160,.T.);
#1149 = FACE_BOUND('',#1150,.F.);
#1150 = EDGE_LOOP('',(#1151,#1152,#1158,#1159));
#1151 = ORIENTED_EDGE('',*,*,#439,.T.);
#1152 = ORIENTED_EDGE('',*,*,#1153,.T.);
#1153 = EDGE_CURVE('',#432,#238,#1154,.T.);
#1154 = LINE('',#1155,#1156);
#1155 = CARTESIAN_POINT('',(2.,101.55,0.));
#1156 = VECTOR('',#1157,1.);
#1157 = DIRECTION('',(0.,0.,1.));
#1158 = ORIENTED_EDGE('',*,*,#245,.F.);
#1159 = ORIENTED_EDGE('',*,*,#1138,.F.);
#1160 = CYLINDRICAL_SURFACE('',#1161,2.);
#1161 = AXIS2_PLACEMENT_3D('',#1162,#1163,#1164);
#1162 = CARTESIAN_POINT('',(2.,99.55,0.));
#1163 = DIRECTION('',(0.,0.,1.));
#1164 = DIRECTION('',(-1.,0.,0.));
#1165 = ADVANCED_FACE('',(#1166),#1172,.T.);
#1166 = FACE_BOUND('',#1167,.T.);
#1167 = EDGE_LOOP('',(#1168,#1169,#1170,#1171));
#1168 = ORIENTED_EDGE('',*,*,#431,.F.);
#1169 = ORIENTED_EDGE('',*,*,#1153,.T.);
#1170 = ORIENTED_EDGE('',*,*,#237,.T.);
#1171 = ORIENTED_EDGE('',*,*,#347,.F.);
#1172 = PLANE('',#1173);
#1173 = AXIS2_PLACEMENT_3D('',#1174,#1175,#1176);
#1174 = CARTESIAN_POINT('',(0.,101.55,0.));
#1175 = DIRECTION('',(0.,1.,0.));
#1176 = DIRECTION('',(1.,0.,0.));
#1177 = ADVANCED_FACE('',(#1178),#1197,.F.);
#1178 = FACE_BOUND('',#1179,.T.);
#1179 = EDGE_LOOP('',(#1180,#1188,#1189,#1190));
#1180 = ORIENTED_EDGE('',*,*,#1181,.F.);
#1181 = EDGE_CURVE('',#289,#1182,#1184,.T.);
#1182 = VERTEX_POINT('',#1183);
#1183 = CARTESIAN_POINT('',(25.05935,3.4017,11.));
#1184 = LINE('',#1185,#1186);
#1185 = CARTESIAN_POINT('',(25.05935,3.4017,15.));
#1186 = VECTOR('',#1187,1.);
#1187 = DIRECTION('',(0.,0.,-1.));
#1188 = ORIENTED_EDGE('',*,*,#288,.T.);
#1189 = ORIENTED_EDGE('',*,*,#1181,.T.);
#1190 = ORIENTED_EDGE('',*,*,#1191,.F.);
#1191 = EDGE_CURVE('',#1182,#1182,#1192,.T.);
#1192 = CIRCLE('',#1193,2.);
#1193 = AXIS2_PLACEMENT_3D('',#1194,#1195,#1196);
#1194 = CARTESIAN_POINT('',(23.05935,3.4017,11.));
#1195 = DIRECTION('',(0.,0.,1.));
#1196 = DIRECTION('',(1.,0.,0.));
#1197 = CYLINDRICAL_SURFACE('',#1198,2.);
#1198 = AXIS2_PLACEMENT_3D('',#1199,#1200,#1201);
#1199 = CARTESIAN_POINT('',(23.05935,3.4017,15.));
#1200 = DIRECTION('',(-0.,-0.,-1.));
#1201 = DIRECTION('',(1.,0.,0.));
#1202 = ADVANCED_FACE('',(#1203),#1222,.F.);
#1203 = FACE_BOUND('',#1204,.T.);
#1204 = EDGE_LOOP('',(#1205,#1213,#1214,#1215));
#1205 = ORIENTED_EDGE('',*,*,#1206,.F.);
#1206 = EDGE_CURVE('',#300,#1207,#1209,.T.);
#1207 = VERTEX_POINT('',#1208);
#1208 = CARTESIAN_POINT('',(193.87435,2.8417,11.));
#1209 = LINE('',#1210,#1211);
#1210 = CARTESIAN_POINT('',(193.87435,2.8417,15.));
#1211 = VECTOR('',#1212,1.);
#1212 = DIRECTION('',(0.,0.,-1.));
#1213 = ORIENTED_EDGE('',*,*,#299,.T.);
#1214 = ORIENTED_EDGE('',*,*,#1206,.T.);
#1215 = ORIENTED_EDGE('',*,*,#1216,.F.);
#1216 = EDGE_CURVE('',#1207,#1207,#1217,.T.);
#1217 = CIRCLE('',#1218,2.);
#1218 = AXIS2_PLACEMENT_3D('',#1219,#1220,#1221);
#1219 = CARTESIAN_POINT('',(191.87435,2.8417,11.));
#1220 = DIRECTION('',(0.,0.,1.));
#1221 = DIRECTION('',(1.,0.,0.));
#1222 = CYLINDRICAL_SURFACE('',#1223,2.);
#1223 = AXIS2_PLACEMENT_3D('',#1224,#1225,#1226);
#1224 = CARTESIAN_POINT('',(191.87435,2.8417,15.));
#1225 = DIRECTION('',(-0.,-0.,-1.));
#1226 = DIRECTION('',(1.,0.,0.));
#1227 = ADVANCED_FACE('',(#1228),#1247,.F.);
#1228 = FACE_BOUND('',#1229,.T.);
#1229 = EDGE_LOOP('',(#1230,#1238,#1239,#1240));
#1230 = ORIENTED_EDGE('',*,*,#1231,.F.);
#1231 = EDGE_CURVE('',#311,#1232,#1234,.T.);
#1232 = VERTEX_POINT('',#1233);
#1233 = CARTESIAN_POINT('',(5.24935,71.9667,11.));
#1234 = LINE('',#1235,#1236);
#1235 = CARTESIAN_POINT('',(5.24935,71.9667,15.));
#1236 = VECTOR('',#1237,1.);
#1237 = DIRECTION('',(0.,0.,-1.));
#1238 = ORIENTED_EDGE('',*,*,#310,.T.);
#1239 = ORIENTED_EDGE('',*,*,#1231,.T.);
#1240 = ORIENTED_EDGE('',*,*,#1241,.F.);
#1241 = EDGE_CURVE('',#1232,#1232,#1242,.T.);
#1242 = CIRCLE('',#1243,2.);
#1243 = AXIS2_PLACEMENT_3D('',#1244,#1245,#1246);
#1244 = CARTESIAN_POINT('',(3.24935,71.9667,11.));
#1245 = DIRECTION('',(0.,0.,1.));
#1246 = DIRECTION('',(1.,0.,0.));
#1247 = CYLINDRICAL_SURFACE('',#1248,2.);
#1248 = AXIS2_PLACEMENT_3D('',#1249,#1250,#1251);
#1249 = CARTESIAN_POINT('',(3.24935,71.9667,15.));
#1250 = DIRECTION('',(-0.,-0.,-1.));
#1251 = DIRECTION('',(1.,0.,0.));
#1252 = ADVANCED_FACE('',(#1253),#1272,.F.);
#1253 = FACE_BOUND('',#1254,.T.);
#1254 = EDGE_LOOP('',(#1255,#1263,#1264,#1265));
#1255 = ORIENTED_EDGE('',*,*,#1256,.F.);
#1256 = EDGE_CURVE('',#322,#1257,#1259,.T.);
#1257 = VERTEX_POINT('',#1258);
#1258 = CARTESIAN_POINT('',(192.99935,97.8417,11.));
#1259 = LINE('',#1260,#1261);
#1260 = CARTESIAN_POINT('',(192.99935,97.8417,15.));
#1261 = VECTOR('',#1262,1.);
#1262 = DIRECTION('',(0.,0.,-1.));
#1263 = ORIENTED_EDGE('',*,*,#321,.T.);
#1264 = ORIENTED_EDGE('',*,*,#1256,.T.);
#1265 = ORIENTED_EDGE('',*,*,#1266,.F.);
#1266 = EDGE_CURVE('',#1257,#1257,#1267,.T.);
#1267 = CIRCLE('',#1268,2.);
#1268 = AXIS2_PLACEMENT_3D('',#1269,#1270,#1271);
#1269 = CARTESIAN_POINT('',(190.99935,97.8417,11.));
#1270 = DIRECTION('',(0.,0.,1.));
#1271 = DIRECTION('',(1.,0.,0.));
#1272 = CYLINDRICAL_SURFACE('',#1273,2.);
#1273 = AXIS2_PLACEMENT_3D('',#1274,#1275,#1276);
#1274 = CARTESIAN_POINT('',(190.99935,97.8417,15.));
#1275 = DIRECTION('',(-0.,-0.,-1.));
#1276 = DIRECTION('',(1.,0.,0.));
#1277 = ADVANCED_FACE('',(#1278),#1289,.T.);
#1278 = FACE_BOUND('',#1279,.T.);
#1279 = EDGE_LOOP('',(#1280,#1281,#1287,#1288));
#1280 = ORIENTED_EDGE('',*,*,#373,.T.);
#1281 = ORIENTED_EDGE('',*,*,#1282,.T.);
#1282 = EDGE_CURVE('',#374,#564,#1283,.T.);
#1283 = LINE('',#1284,#1285);
#1284 = CARTESIAN_POINT('',(2.,77.0179,0.));
#1285 = VECTOR('',#1286,1.);
#1286 = DIRECTION('',(0.,0.,1.));
#1287 = ORIENTED_EDGE('',*,*,#563,.F.);
#1288 = ORIENTED_EDGE('',*,*,#1129,.F.);
#1289 = CYLINDRICAL_SURFACE('',#1290,2.);
#1290 = AXIS2_PLACEMENT_3D('',#1291,#1292,#1293);
#1291 = CARTESIAN_POINT('',(2.,79.0179,0.));
#1292 = DIRECTION('',(0.,0.,1.));
#1293 = DIRECTION('',(-1.,0.,0.));
#1294 = ADVANCED_FACE('',(#1295),#1306,.T.);
#1295 = FACE_BOUND('',#1296,.T.);
#1296 = EDGE_LOOP('',(#1297,#1298,#1299,#1300));
#1297 = ORIENTED_EDGE('',*,*,#572,.F.);
#1298 = ORIENTED_EDGE('',*,*,#1282,.F.);
#1299 = ORIENTED_EDGE('',*,*,#382,.T.);
#1300 = ORIENTED_EDGE('',*,*,#1301,.F.);
#1301 = EDGE_CURVE('',#573,#383,#1302,.T.);
#1302 = LINE('',#1303,#1304);
#1303 = CARTESIAN_POINT('',(17.2224,77.0179,7.6));
#1304 = VECTOR('',#1305,1.);
#1305 = DIRECTION('',(-0.,-0.,-1.));
#1306 = PLANE('',#1307);
#1307 = AXIS2_PLACEMENT_3D('',#1308,#1309,#1310);
#1308 = CARTESIAN_POINT('',(-7.977064095238,77.0179,7.6));
#1309 = DIRECTION('',(0.,-1.,0.));
#1310 = DIRECTION('',(1.,0.,0.));
#1311 = ADVANCED_FACE('',(#1312),#1323,.F.);
#1312 = FACE_BOUND('',#1313,.T.);
#1313 = EDGE_LOOP('',(#1314,#1315,#1316,#1317));
#1314 = ORIENTED_EDGE('',*,*,#580,.F.);
#1315 = ORIENTED_EDGE('',*,*,#1301,.T.);
#1316 = ORIENTED_EDGE('',*,*,#390,.F.);
#1317 = ORIENTED_EDGE('',*,*,#1318,.F.);
#1318 = EDGE_CURVE('',#581,#391,#1319,.T.);
#1319 = LINE('',#1320,#1321);
#1320 = CARTESIAN_POINT('',(19.2224,75.0179,7.6));
#1321 = VECTOR('',#1322,1.);
#1322 = DIRECTION('',(-0.,-0.,-1.));
#1323 = CYLINDRICAL_SURFACE('',#1324,2.);
#1324 = AXIS2_PLACEMENT_3D('',#1325,#1326,#1327);
#1325 = CARTESIAN_POINT('',(17.2224,75.0179,7.6));
#1326 = DIRECTION('',(0.,0.,1.));
#1327 = DIRECTION('',(1.,0.,0.));
#1328 = ADVANCED_FACE('',(#1329),#1342,.T.);
#1329 = FACE_BOUND('',#1330,.T.);
#1330 = EDGE_LOOP('',(#1331,#1332,#1333,#1334,#1335,#1336));
#1331 = ORIENTED_EDGE('',*,*,#489,.T.);
#1332 = ORIENTED_EDGE('',*,*,#529,.T.);
#1333 = ORIENTED_EDGE('',*,*,#589,.F.);
#1334 = ORIENTED_EDGE('',*,*,#1318,.T.);
#1335 = ORIENTED_EDGE('',*,*,#399,.T.);
#1336 = ORIENTED_EDGE('',*,*,#1337,.T.);
#1337 = EDGE_CURVE('',#400,#490,#1338,.T.);
#1338 = LINE('',#1339,#1340);
#1339 = CARTESIAN_POINT('',(19.2224,71.5,0.));
#1340 = VECTOR('',#1341,1.);
#1341 = DIRECTION('',(0.,0.,1.));
#1342 = PLANE('',#1343);
#1343 = AXIS2_PLACEMENT_3D('',#1344,#1345,#1346);
#1344 = CARTESIAN_POINT('',(19.2224,75.0179,7.6));
#1345 = DIRECTION('',(-1.,0.,0.));
#1346 = DIRECTION('',(0.,-1.,0.));
#1347 = ADVANCED_FACE('',(#1348),#1359,.F.);
#1348 = FACE_BOUND('',#1349,.T.);
#1349 = EDGE_LOOP('',(#1350,#1351,#1357,#1358));
#1350 = ORIENTED_EDGE('',*,*,#407,.F.);
#1351 = ORIENTED_EDGE('',*,*,#1352,.T.);
#1352 = EDGE_CURVE('',#408,#508,#1353,.T.);
#1353 = LINE('',#1354,#1355);
#1354 = CARTESIAN_POINT('',(21.2224,69.5,0.));
#1355 = VECTOR('',#1356,1.);
#1356 = DIRECTION('',(0.,0.,1.));
#1357 = ORIENTED_EDGE('',*,*,#515,.T.);
#1358 = ORIENTED_EDGE('',*,*,#1337,.F.);
#1359 = PLANE('',#1360);
#1360 = AXIS2_PLACEMENT_3D('',#1361,#1362,#1363);
#1361 = CARTESIAN_POINT('',(20.2224,70.5,0.));
#1362 = DIRECTION('',(0.707106781187,0.707106781187,0.));
#1363 = DIRECTION('',(0.,0.,-1.));
#1364 = ADVANCED_FACE('',(#1365),#1371,.F.);
#1365 = FACE_BOUND('',#1366,.F.);
#1366 = EDGE_LOOP('',(#1367,#1368,#1369,#1370));
#1367 = ORIENTED_EDGE('',*,*,#415,.F.);
#1368 = ORIENTED_EDGE('',*,*,#1352,.T.);
#1369 = ORIENTED_EDGE('',*,*,#507,.T.);
#1370 = ORIENTED_EDGE('',*,*,#475,.F.);
#1371 = PLANE('',#1372);
#1372 = AXIS2_PLACEMENT_3D('',#1373,#1374,#1375);
#1373 = CARTESIAN_POINT('',(0.,69.5,3.620616018514));
#1374 = DIRECTION('',(0.,1.,0.));
#1375 = DIRECTION('',(0.,0.,-1.));
#1376 = ADVANCED_FACE('',(#1377),#1396,.F.);
#1377 = FACE_BOUND('',#1378,.T.);
#1378 = EDGE_LOOP('',(#1379,#1387,#1394,#1395));
#1379 = ORIENTED_EDGE('',*,*,#1380,.F.);
#1380 = EDGE_CURVE('',#1381,#449,#1383,.T.);
#1381 = VERTEX_POINT('',#1382);
#1382 = CARTESIAN_POINT('',(192.74935,97.8417,11.));
#1383 = LINE('',#1384,#1385);
#1384 = CARTESIAN_POINT('',(192.74935,97.8417,11.));
#1385 = VECTOR('',#1386,1.);
#1386 = DIRECTION('',(-6.142093202436E-17,0.,-1.));
#1387 = ORIENTED_EDGE('',*,*,#1388,.T.);
#1388 = EDGE_CURVE('',#1381,#1381,#1389,.T.);
#1389 = CIRCLE('',#1390,1.75);
#1390 = AXIS2_PLACEMENT_3D('',#1391,#1392,#1393);
#1391 = CARTESIAN_POINT('',(190.99935,97.8417,11.));
#1392 = DIRECTION('',(0.,0.,1.));
#1393 = DIRECTION('',(1.,0.,0.));
#1394 = ORIENTED_EDGE('',*,*,#1380,.T.);
#1395 = ORIENTED_EDGE('',*,*,#448,.T.);
#1396 = CYLINDRICAL_SURFACE('',#1397,1.75);
#1397 = AXIS2_PLACEMENT_3D('',#1398,#1399,#1400);
#1398 = CARTESIAN_POINT('',(190.99935,97.8417,11.));
#1399 = DIRECTION('',(-0.,-0.,-1.));
#1400 = DIRECTION('',(1.,0.,0.));
#1401 = ADVANCED_FACE('',(#1402),#1421,.T.);
#1402 = FACE_BOUND('',#1403,.F.);
#1403 = EDGE_LOOP('',(#1404,#1405,#1414,#1420));
#1404 = ORIENTED_EDGE('',*,*,#1037,.F.);
#1405 = ORIENTED_EDGE('',*,*,#1406,.T.);
#1406 = EDGE_CURVE('',#1038,#1407,#1409,.T.);
#1407 = VERTEX_POINT('',#1408);
#1408 = CARTESIAN_POINT('',(21.5,36.,6.6));
#1409 = ELLIPSE('',#1410,3.111447653721,2.);
#1410 = AXIS2_PLACEMENT_3D('',#1411,#1412,#1413);
#1411 = CARTESIAN_POINT('',(21.5,34.,4.216492814812));
#1412 = DIRECTION('',(0.,0.766044443119,-0.642787609687));
#1413 = DIRECTION('',(0.,0.642787609687,0.766044443119));
#1414 = ORIENTED_EDGE('',*,*,#1415,.T.);
#1415 = EDGE_CURVE('',#1407,#671,#1416,.T.);
#1416 = LINE('',#1417,#1418);
#1417 = CARTESIAN_POINT('',(21.5,36.,0.));
#1418 = VECTOR('',#1419,1.);
#1419 = DIRECTION('',(0.,0.,1.));
#1420 = ORIENTED_EDGE('',*,*,#678,.F.);
#1421 = CYLINDRICAL_SURFACE('',#1422,2.);
#1422 = AXIS2_PLACEMENT_3D('',#1423,#1424,#1425);
#1423 = CARTESIAN_POINT('',(21.5,34.,0.));
#1424 = DIRECTION('',(0.,0.,1.));
#1425 = DIRECTION('',(-1.,0.,0.));
#1426 = ADVANCED_FACE('',(#1427),#1445,.F.);
#1427 = FACE_BOUND('',#1428,.F.);
#1428 = EDGE_LOOP('',(#1429,#1430,#1438,#1444));
#1429 = ORIENTED_EDGE('',*,*,#1415,.F.);
#1430 = ORIENTED_EDGE('',*,*,#1431,.T.);
#1431 = EDGE_CURVE('',#1407,#1432,#1434,.T.);
#1432 = VERTEX_POINT('',#1433);
#1433 = CARTESIAN_POINT('',(52.5,36.,6.6));
#1434 = LINE('',#1435,#1436);
#1435 = CARTESIAN_POINT('',(0.,36.,6.6));
#1436 = VECTOR('',#1437,1.);
#1437 = DIRECTION('',(1.,0.,0.));
#1438 = ORIENTED_EDGE('',*,*,#1439,.T.);
#1439 = EDGE_CURVE('',#1432,#663,#1440,.T.);
#1440 = LINE('',#1441,#1442);
#1441 = CARTESIAN_POINT('',(52.5,36.,3.3));
#1442 = VECTOR('',#1443,1.);
#1443 = DIRECTION('',(-7.11E-15,0.,1.));
#1444 = ORIENTED_EDGE('',*,*,#670,.F.);
#1445 = PLANE('',#1446);
#1446 = AXIS2_PLACEMENT_3D('',#1447,#1448,#1449);
#1447 = CARTESIAN_POINT('',(0.,36.,0.));
#1448 = DIRECTION('',(0.,-1.,0.));
#1449 = DIRECTION('',(0.,0.,1.));
#1450 = ADVANCED_FACE('',(#1451),#1462,.T.);
#1451 = FACE_BOUND('',#1452,.T.);
#1452 = EDGE_LOOP('',(#1453,#1454,#1460,#1461));
#1453 = ORIENTED_EDGE('',*,*,#862,.F.);
#1454 = ORIENTED_EDGE('',*,*,#1455,.T.);
#1455 = EDGE_CURVE('',#855,#1432,#1456,.T.);
#1456 = LINE('',#1457,#1458);
#1457 = CARTESIAN_POINT('',(52.5,1.47E-15,6.6));
#1458 = VECTOR('',#1459,1.);
#1459 = DIRECTION('',(0.,1.,-2.2E-16));
#1460 = ORIENTED_EDGE('',*,*,#1439,.T.);
#1461 = ORIENTED_EDGE('',*,*,#662,.F.);
#1462 = PLANE('',#1463);
#1463 = AXIS2_PLACEMENT_3D('',#1464,#1465,#1466);
#1464 = CARTESIAN_POINT('',(52.5,1.47E-15,6.6));
#1465 = DIRECTION('',(1.,0.,7.11E-15));
#1466 = DIRECTION('',(-7.11E-15,2.2E-16,1.));
#1467 = ADVANCED_FACE('',(#1468),#1479,.F.);
#1468 = FACE_BOUND('',#1469,.F.);
#1469 = EDGE_LOOP('',(#1470,#1476,#1477,#1478));
#1470 = ORIENTED_EDGE('',*,*,#1471,.T.);
#1471 = EDGE_CURVE('',#607,#797,#1472,.T.);
#1472 = LINE('',#1473,#1474);
#1473 = CARTESIAN_POINT('',(152.5,36.,3.8));
#1474 = VECTOR('',#1475,1.);
#1475 = DIRECTION('',(-0.,-0.,-1.));
#1476 = ORIENTED_EDGE('',*,*,#804,.T.);
#1477 = ORIENTED_EDGE('',*,*,#762,.F.);
#1478 = ORIENTED_EDGE('',*,*,#606,.F.);
#1479 = PLANE('',#1480);
#1480 = AXIS2_PLACEMENT_3D('',#1481,#1482,#1483);
#1481 = CARTESIAN_POINT('',(0.,36.,0.));
#1482 = DIRECTION('',(0.,-1.,0.));
#1483 = DIRECTION('',(0.,0.,1.));
#1484 = ADVANCED_FACE('',(#1485),#1503,.T.);
#1485 = FACE_BOUND('',#1486,.T.);
#1486 = EDGE_LOOP('',(#1487,#1488,#1489,#1497));
#1487 = ORIENTED_EDGE('',*,*,#869,.F.);
#1488 = ORIENTED_EDGE('',*,*,#646,.T.);
#1489 = ORIENTED_EDGE('',*,*,#1490,.T.);
#1490 = EDGE_CURVE('',#639,#1491,#1493,.T.);
#1491 = VERTEX_POINT('',#1492);
#1492 = CARTESIAN_POINT('',(77.5,36.,6.6));
#1493 = LINE('',#1494,#1495);
#1494 = CARTESIAN_POINT('',(77.5,36.,3.8));
#1495 = VECTOR('',#1496,1.);
#1496 = DIRECTION('',(0.,0.,-1.));
#1497 = ORIENTED_EDGE('',*,*,#1498,.F.);
#1498 = EDGE_CURVE('',#870,#1491,#1499,.T.);
#1499 = LINE('',#1500,#1501);
#1500 = CARTESIAN_POINT('',(77.5,1.47E-15,6.6));
#1501 = VECTOR('',#1502,1.);
#1502 = DIRECTION('',(0.,1.,-2.2E-16));
#1503 = PLANE('',#1504);
#1504 = AXIS2_PLACEMENT_3D('',#1505,#1506,#1507);
#1505 = CARTESIAN_POINT('',(77.5,1.69E-15,7.6));
#1506 = DIRECTION('',(-1.,0.,0.));
#1507 = DIRECTION('',(0.,-2.2E-16,-1.));
#1508 = ADVANCED_FACE('',(#1509),#1520,.T.);
#1509 = FACE_BOUND('',#1510,.T.);
#1510 = EDGE_LOOP('',(#1511,#1512,#1513,#1514));
#1511 = ORIENTED_EDGE('',*,*,#924,.F.);
#1512 = ORIENTED_EDGE('',*,*,#614,.T.);
#1513 = ORIENTED_EDGE('',*,*,#1471,.T.);
#1514 = ORIENTED_EDGE('',*,*,#1515,.F.);
#1515 = EDGE_CURVE('',#925,#797,#1516,.T.);
#1516 = LINE('',#1517,#1518);
#1517 = CARTESIAN_POINT('',(152.5,1.47E-15,6.6));
#1518 = VECTOR('',#1519,1.);
#1519 = DIRECTION('',(0.,1.,-2.2E-16));
#1520 = PLANE('',#1521);
#1521 = AXIS2_PLACEMENT_3D('',#1522,#1523,#1524);
#1522 = CARTESIAN_POINT('',(152.5,1.69E-15,7.6));
#1523 = DIRECTION('',(-1.,0.,0.));
#1524 = DIRECTION('',(0.,-2.2E-16,-1.));
#1525 = ADVANCED_FACE('',(#1526),#1544,.F.);
#1526 = FACE_BOUND('',#1527,.F.);
#1527 = EDGE_LOOP('',(#1528,#1536,#1542,#1543));
#1528 = ORIENTED_EDGE('',*,*,#1529,.T.);
#1529 = EDGE_CURVE('',#1491,#1530,#1532,.T.);
#1530 = VERTEX_POINT('',#1531);
#1531 = CARTESIAN_POINT('',(127.5,36.,6.6));
#1532 = LINE('',#1533,#1534);
#1533 = CARTESIAN_POINT('',(0.,36.,6.6));
#1534 = VECTOR('',#1535,1.);
#1535 = DIRECTION('',(1.,0.,0.));
#1536 = ORIENTED_EDGE('',*,*,#1537,.T.);
#1537 = EDGE_CURVE('',#1530,#631,#1538,.T.);
#1538 = LINE('',#1539,#1540);
#1539 = CARTESIAN_POINT('',(127.5,36.,3.3));
#1540 = VECTOR('',#1541,1.);
#1541 = DIRECTION('',(-7.11E-15,0.,1.));
#1542 = ORIENTED_EDGE('',*,*,#638,.F.);
#1543 = ORIENTED_EDGE('',*,*,#1490,.T.);
#1544 = PLANE('',#1545);
#1545 = AXIS2_PLACEMENT_3D('',#1546,#1547,#1548);
#1546 = CARTESIAN_POINT('',(0.,36.,0.));
#1547 = DIRECTION('',(0.,-1.,0.));
#1548 = DIRECTION('',(0.,0.,1.));
#1549 = ADVANCED_FACE('',(#1550),#1561,.T.);
#1550 = FACE_BOUND('',#1551,.T.);
#1551 = EDGE_LOOP('',(#1552,#1553,#1559,#1560));
#1552 = ORIENTED_EDGE('',*,*,#917,.F.);
#1553 = ORIENTED_EDGE('',*,*,#1554,.T.);
#1554 = EDGE_CURVE('',#910,#1530,#1555,.T.);
#1555 = LINE('',#1556,#1557);
#1556 = CARTESIAN_POINT('',(127.5,1.47E-15,6.6));
#1557 = VECTOR('',#1558,1.);
#1558 = DIRECTION('',(0.,1.,-2.2E-16));
#1559 = ORIENTED_EDGE('',*,*,#1537,.T.);
#1560 = ORIENTED_EDGE('',*,*,#630,.F.);
#1561 = PLANE('',#1562);
#1562 = AXIS2_PLACEMENT_3D('',#1563,#1564,#1565);
#1563 = CARTESIAN_POINT('',(127.5,1.47E-15,6.6));
#1564 = DIRECTION('',(1.,0.,7.11E-15));
#1565 = DIRECTION('',(-7.11E-15,2.2E-16,1.));
#1566 = ADVANCED_FACE('',(#1567),#1586,.F.);
#1567 = FACE_BOUND('',#1568,.T.);
#1568 = EDGE_LOOP('',(#1569,#1577,#1578,#1579));
#1569 = ORIENTED_EDGE('',*,*,#1570,.F.);
#1570 = EDGE_CURVE('',#722,#1571,#1573,.T.);
#1571 = VERTEX_POINT('',#1572);
#1572 = CARTESIAN_POINT('',(138.625,13.,13.6));
#1573 = LINE('',#1574,#1575);
#1574 = CARTESIAN_POINT('',(138.625,13.,7.6));
#1575 = VECTOR('',#1576,1.);
#1576 = DIRECTION('',(7.E-17,0.,1.));
#1577 = ORIENTED_EDGE('',*,*,#721,.T.);
#1578 = ORIENTED_EDGE('',*,*,#1570,.T.);
#1579 = ORIENTED_EDGE('',*,*,#1580,.F.);
#1580 = EDGE_CURVE('',#1571,#1571,#1581,.T.);
#1581 = CIRCLE('',#1582,1.375);
#1582 = AXIS2_PLACEMENT_3D('',#1583,#1584,#1585);
#1583 = CARTESIAN_POINT('',(140.,13.,13.6));
#1584 = DIRECTION('',(0.,0.,-1.));
#1585 = DIRECTION('',(-1.,0.,0.));
#1586 = CYLINDRICAL_SURFACE('',#1587,1.375);
#1587 = AXIS2_PLACEMENT_3D('',#1588,#1589,#1590);
#1588 = CARTESIAN_POINT('',(140.,13.,7.6));
#1589 = DIRECTION('',(0.,0.,1.));
#1590 = DIRECTION('',(-1.,0.,0.));
#1591 = ADVANCED_FACE('',(#1592),#1611,.F.);
#1592 = FACE_BOUND('',#1593,.T.);
#1593 = EDGE_LOOP('',(#1594,#1602,#1603,#1604));
#1594 = ORIENTED_EDGE('',*,*,#1595,.F.);
#1595 = EDGE_CURVE('',#733,#1596,#1598,.T.);
#1596 = VERTEX_POINT('',#1597);
#1597 = CARTESIAN_POINT('',(63.625,13.,13.6));
#1598 = LINE('',#1599,#1600);
#1599 = CARTESIAN_POINT('',(63.625,13.,7.6));
#1600 = VECTOR('',#1601,1.);
#1601 = DIRECTION('',(7.E-17,0.,1.));
#1602 = ORIENTED_EDGE('',*,*,#732,.T.);
#1603 = ORIENTED_EDGE('',*,*,#1595,.T.);
#1604 = ORIENTED_EDGE('',*,*,#1605,.F.);
#1605 = EDGE_CURVE('',#1596,#1596,#1606,.T.);
#1606 = CIRCLE('',#1607,1.375);
#1607 = AXIS2_PLACEMENT_3D('',#1608,#1609,#1610);
#1608 = CARTESIAN_POINT('',(65.,13.,13.6));
#1609 = DIRECTION('',(0.,0.,-1.));
#1610 = DIRECTION('',(-1.,0.,0.));
#1611 = CYLINDRICAL_SURFACE('',#1612,1.375);
#1612 = AXIS2_PLACEMENT_3D('',#1613,#1614,#1615);
#1613 = CARTESIAN_POINT('',(65.,13.,7.6));
#1614 = DIRECTION('',(0.,0.,1.));
#1615 = DIRECTION('',(-1.,0.,0.));
#1616 = ADVANCED_FACE('',(#1617),#1636,.F.);
#1617 = FACE_BOUND('',#1618,.T.);
#1618 = EDGE_LOOP('',(#1619,#1627,#1634,#1635));
#1619 = ORIENTED_EDGE('',*,*,#1620,.F.);
#1620 = EDGE_CURVE('',#1621,#744,#1623,.T.);
#1621 = VERTEX_POINT('',#1622);
#1622 = CARTESIAN_POINT('',(4.99935,71.9667,11.));
#1623 = LINE('',#1624,#1625);
#1624 = CARTESIAN_POINT('',(4.99935,71.9667,11.));
#1625 = VECTOR('',#1626,1.);
#1626 = DIRECTION('',(-6.142093202436E-17,0.,-1.));
#1627 = ORIENTED_EDGE('',*,*,#1628,.T.);
#1628 = EDGE_CURVE('',#1621,#1621,#1629,.T.);
#1629 = CIRCLE('',#1630,1.75);
#1630 = AXIS2_PLACEMENT_3D('',#1631,#1632,#1633);
#1631 = CARTESIAN_POINT('',(3.24935,71.9667,11.));
#1632 = DIRECTION('',(0.,0.,1.));
#1633 = DIRECTION('',(1.,0.,0.));
#1634 = ORIENTED_EDGE('',*,*,#1620,.T.);
#1635 = ORIENTED_EDGE('',*,*,#743,.T.);
#1636 = CYLINDRICAL_SURFACE('',#1637,1.75);
#1637 = AXIS2_PLACEMENT_3D('',#1638,#1639,#1640);
#1638 = CARTESIAN_POINT('',(3.24935,71.9667,11.));
#1639 = DIRECTION('',(-0.,-0.,-1.));
#1640 = DIRECTION('',(1.,0.,0.));
#1641 = ADVANCED_FACE('',(#1642),#1649,.T.);
#1642 = FACE_BOUND('',#1643,.T.);
#1643 = EDGE_LOOP('',(#1644,#1645,#1646,#1647,#1648));
#1644 = ORIENTED_EDGE('',*,*,#932,.F.);
#1645 = ORIENTED_EDGE('',*,*,#1515,.T.);
#1646 = ORIENTED_EDGE('',*,*,#796,.T.);
#1647 = ORIENTED_EDGE('',*,*,#973,.F.);
#1648 = ORIENTED_EDGE('',*,*,#957,.T.);
#1649 = PLANE('',#1650);
#1650 = AXIS2_PLACEMENT_3D('',#1651,#1652,#1653);
#1651 = CARTESIAN_POINT('',(152.5,1.47E-15,6.6));
#1652 = DIRECTION('',(-0.866025403785,1.1E-16,0.5));
#1653 = DIRECTION('',(-0.5,-1.9E-16,-0.866025403785));
#1654 = ADVANCED_FACE('',(#1655),#1681,.T.);
#1655 = FACE_BOUND('',#1656,.T.);
#1656 = EDGE_LOOP('',(#1657,#1658,#1666,#1674,#1680));
#1657 = ORIENTED_EDGE('',*,*,#909,.F.);
#1658 = ORIENTED_EDGE('',*,*,#1659,.F.);
#1659 = EDGE_CURVE('',#1660,#902,#1662,.T.);
#1660 = VERTEX_POINT('',#1661);
#1661 = CARTESIAN_POINT('',(130.44448637286,2.444218439482,1.5));
#1662 = LINE('',#1663,#1664);
#1663 = CARTESIAN_POINT('',(129.73651042324,1.736242489858,
    2.726250315287));
#1664 = VECTOR('',#1665,1.);
#1665 = DIRECTION('',(-0.4472135955,-0.4472135955,0.774596669242));
#1666 = ORIENTED_EDGE('',*,*,#1667,.T.);
#1667 = EDGE_CURVE('',#1660,#1668,#1670,.T.);
#1668 = VERTEX_POINT('',#1669);
#1669 = CARTESIAN_POINT('',(130.44448637286,31.720591880996,1.5));
#1670 = LINE('',#1671,#1672);
#1671 = CARTESIAN_POINT('',(130.44448637286,-1.1E-16,1.5));
#1672 = VECTOR('',#1673,1.);
#1673 = DIRECTION('',(0.,1.,-2.2E-16));
#1674 = ORIENTED_EDGE('',*,*,#1675,.T.);
#1675 = EDGE_CURVE('',#1668,#1530,#1676,.T.);
#1676 = LINE('',#1677,#1678);
#1677 = CARTESIAN_POINT('',(122.52506293452,43.230390422495,
    15.216843761867));
#1678 = VECTOR('',#1679,1.);
#1679 = DIRECTION('',(-0.404481746652,0.587858883153,0.700582935936));
#1680 = ORIENTED_EDGE('',*,*,#1554,.F.);
#1681 = PLANE('',#1682);
#1682 = AXIS2_PLACEMENT_3D('',#1683,#1684,#1685);
#1683 = CARTESIAN_POINT('',(131.31051177665,0.,0.));
#1684 = DIRECTION('',(0.866025403785,1.1E-16,0.5));
#1685 = DIRECTION('',(-0.5,1.9E-16,0.866025403785));
#1686 = ADVANCED_FACE('',(#1687),#1706,.T.);
#1687 = FACE_BOUND('',#1688,.F.);
#1688 = EDGE_LOOP('',(#1689,#1690,#1691,#1700));
#1689 = ORIENTED_EDGE('',*,*,#901,.F.);
#1690 = ORIENTED_EDGE('',*,*,#1659,.F.);
#1691 = ORIENTED_EDGE('',*,*,#1692,.F.);
#1692 = EDGE_CURVE('',#1693,#1660,#1695,.T.);
#1693 = VERTEX_POINT('',#1694);
#1694 = CARTESIAN_POINT('',(129.57846096908,1.578193035698,0.));
#1695 = ELLIPSE('',#1696,1.414213562373,1.);
#1696 = AXIS2_PLACEMENT_3D('',#1697,#1698,#1699);
#1697 = CARTESIAN_POINT('',(129.57846096908,1.578193035698,1.));
#1698 = DIRECTION('',(0.707106781187,-0.707106781187,0.));
#1699 = DIRECTION('',(0.707106781187,0.707106781187,-3.1E-16));
#1700 = ORIENTED_EDGE('',*,*,#1701,.T.);
#1701 = EDGE_CURVE('',#1693,#894,#1702,.T.);
#1702 = LINE('',#1703,#1704);
#1703 = CARTESIAN_POINT('',(136.80873368175,8.80846574837,0.));
#1704 = VECTOR('',#1705,1.);
#1705 = DIRECTION('',(-0.707106781187,-0.707106781187,0.));
#1706 = PLANE('',#1707);
#1707 = AXIS2_PLACEMENT_3D('',#1708,#1709,#1710);
#1708 = CARTESIAN_POINT('',(131.67742,3.677152066617,7.6));
#1709 = DIRECTION('',(0.707106781187,-0.707106781187,0.));
#1710 = DIRECTION('',(0.707106781187,0.707106781187,0.));
#1711 = ADVANCED_FACE('',(#1712),#1746,.F.);
#1712 = FACE_BOUND('',#1713,.F.);
#1713 = EDGE_LOOP('',(#1714,#1724,#1732,#1738,#1739,#1740));
#1714 = ORIENTED_EDGE('',*,*,#1715,.T.);
#1715 = EDGE_CURVE('',#1716,#1718,#1720,.T.);
#1716 = VERTEX_POINT('',#1717);
#1717 = CARTESIAN_POINT('',(129.57846096908,30.46194243423,
    -6.481627335531E-15));
#1718 = VERTEX_POINT('',#1719);
#1719 = CARTESIAN_POINT('',(75.421539030919,30.46194243423,
    -7.141627335531E-15));
#1720 = LINE('',#1721,#1722);
#1721 = CARTESIAN_POINT('',(51.651206698407,30.46194243423,
    -8.881784197001E-16));
#1722 = VECTOR('',#1723,1.);
#1723 = DIRECTION('',(-1.,0.,0.));
#1724 = ORIENTED_EDGE('',*,*,#1725,.F.);
#1725 = EDGE_CURVE('',#1726,#1718,#1728,.T.);
#1726 = VERTEX_POINT('',#1727);
#1727 = CARTESIAN_POINT('',(75.421539030919,1.578193035698,-1.E-15));
#1728 = LINE('',#1729,#1730);
#1729 = CARTESIAN_POINT('',(75.421539030919,-4.4E-16,-4.4E-16));
#1730 = VECTOR('',#1731,1.);
#1731 = DIRECTION('',(0.,1.,-2.2E-16));
#1732 = ORIENTED_EDGE('',*,*,#1733,.T.);
#1733 = EDGE_CURVE('',#1726,#886,#1734,.T.);
#1734 = LINE('',#1735,#1736);
#1735 = CARTESIAN_POINT('',(68.592473016654,8.407259049962,0.));
#1736 = VECTOR('',#1737,1.);
#1737 = DIRECTION('',(0.707106781187,-0.707106781187,0.));
#1738 = ORIENTED_EDGE('',*,*,#893,.F.);
#1739 = ORIENTED_EDGE('',*,*,#1701,.F.);
#1740 = ORIENTED_EDGE('',*,*,#1741,.T.);
#1741 = EDGE_CURVE('',#1693,#1716,#1742,.T.);
#1742 = LINE('',#1743,#1744);
#1743 = CARTESIAN_POINT('',(129.57846096908,-4.4E-16,2.2E-16));
#1744 = VECTOR('',#1745,1.);
#1745 = DIRECTION('',(0.,1.,-2.2E-16));
#1746 = PLANE('',#1747);
#1747 = AXIS2_PLACEMENT_3D('',#1748,#1749,#1750);
#1748 = CARTESIAN_POINT('',(103.30241339681,52.577413396815,0.));
#1749 = DIRECTION('',(0.,0.,1.));
#1750 = DIRECTION('',(1.,0.,0.));
#1751 = ADVANCED_FACE('',(#1752),#1771,.T.);
#1752 = FACE_BOUND('',#1753,.T.);
#1753 = EDGE_LOOP('',(#1754,#1755,#1763,#1770));
#1754 = ORIENTED_EDGE('',*,*,#885,.F.);
#1755 = ORIENTED_EDGE('',*,*,#1756,.F.);
#1756 = EDGE_CURVE('',#1757,#878,#1759,.T.);
#1757 = VERTEX_POINT('',#1758);
#1758 = CARTESIAN_POINT('',(74.555513627134,2.444218439482,1.5));
#1759 = LINE('',#1760,#1761);
#1760 = CARTESIAN_POINT('',(76.787694287419,0.212037779198,
    5.366250315288));
#1761 = VECTOR('',#1762,1.);
#1762 = DIRECTION('',(0.4472135955,-0.4472135955,0.774596669242));
#1763 = ORIENTED_EDGE('',*,*,#1764,.T.);
#1764 = EDGE_CURVE('',#1757,#1726,#1765,.T.);
#1765 = ELLIPSE('',#1766,1.414213562373,1.);
#1766 = AXIS2_PLACEMENT_3D('',#1767,#1768,#1769);
#1767 = CARTESIAN_POINT('',(75.421539030919,1.578193035698,1.));
#1768 = DIRECTION('',(-0.707106781187,-0.707106781187,0.));
#1769 = DIRECTION('',(-0.707106781187,0.707106781187,-3.1E-16));
#1770 = ORIENTED_EDGE('',*,*,#1733,.T.);
#1771 = PLANE('',#1772);
#1772 = AXIS2_PLACEMENT_3D('',#1773,#1774,#1775);
#1773 = CARTESIAN_POINT('',(73.32258,3.677152066617,7.6));
#1774 = DIRECTION('',(-0.707106781187,-0.707106781187,0.));
#1775 = DIRECTION('',(0.707106781187,-0.707106781187,0.));
#1776 = ADVANCED_FACE('',(#1777),#1796,.T.);
#1777 = FACE_BOUND('',#1778,.T.);
#1778 = EDGE_LOOP('',(#1779,#1780,#1781,#1789,#1795));
#1779 = ORIENTED_EDGE('',*,*,#877,.F.);
#1780 = ORIENTED_EDGE('',*,*,#1498,.T.);
#1781 = ORIENTED_EDGE('',*,*,#1782,.T.);
#1782 = EDGE_CURVE('',#1491,#1783,#1785,.T.);
#1783 = VERTEX_POINT('',#1784);
#1784 = CARTESIAN_POINT('',(74.555513627134,31.720591880996,1.5));
#1785 = LINE('',#1786,#1787);
#1786 = CARTESIAN_POINT('',(66.952216261834,20.670239338661,
    -11.66929734176));
#1787 = VECTOR('',#1788,1.);
#1788 = DIRECTION('',(-0.404481746652,-0.587858883153,-0.700582935936));
#1789 = ORIENTED_EDGE('',*,*,#1790,.F.);
#1790 = EDGE_CURVE('',#1757,#1783,#1791,.T.);
#1791 = LINE('',#1792,#1793);
#1792 = CARTESIAN_POINT('',(74.555513627134,-1.1E-16,1.5));
#1793 = VECTOR('',#1794,1.);
#1794 = DIRECTION('',(0.,1.,-2.2E-16));
#1795 = ORIENTED_EDGE('',*,*,#1756,.T.);
#1796 = PLANE('',#1797);
#1797 = AXIS2_PLACEMENT_3D('',#1798,#1799,#1800);
#1798 = CARTESIAN_POINT('',(77.5,1.47E-15,6.6));
#1799 = DIRECTION('',(-0.866025403785,1.1E-16,0.5));
#1800 = DIRECTION('',(-0.5,-1.9E-16,-0.866025403785));
#1801 = ADVANCED_FACE('',(#1802),#1828,.T.);
#1802 = FACE_BOUND('',#1803,.T.);
#1803 = EDGE_LOOP('',(#1804,#1805,#1813,#1821,#1827));
#1804 = ORIENTED_EDGE('',*,*,#854,.F.);
#1805 = ORIENTED_EDGE('',*,*,#1806,.F.);
#1806 = EDGE_CURVE('',#1807,#847,#1809,.T.);
#1807 = VERTEX_POINT('',#1808);
#1808 = CARTESIAN_POINT('',(55.444486372866,2.444218439482,1.5));
#1809 = LINE('',#1810,#1811);
#1810 = CARTESIAN_POINT('',(54.736510423241,1.736242489858,
    2.726250315287));
#1811 = VECTOR('',#1812,1.);
#1812 = DIRECTION('',(-0.4472135955,-0.4472135955,0.774596669242));
#1813 = ORIENTED_EDGE('',*,*,#1814,.T.);
#1814 = EDGE_CURVE('',#1807,#1815,#1817,.T.);
#1815 = VERTEX_POINT('',#1816);
#1816 = CARTESIAN_POINT('',(55.444486372866,31.720591880996,1.5));
#1817 = LINE('',#1818,#1819);
#1818 = CARTESIAN_POINT('',(55.444486372866,-1.1E-16,1.5));
#1819 = VECTOR('',#1820,1.);
#1820 = DIRECTION('',(0.,1.,-2.2E-16));
#1821 = ORIENTED_EDGE('',*,*,#1822,.T.);
#1822 = EDGE_CURVE('',#1815,#1432,#1823,.T.);
#1823 = LINE('',#1824,#1825);
#1824 = CARTESIAN_POINT('',(53.660268561068,34.313708378406,
    4.590355901804));
#1825 = VECTOR('',#1826,1.);
#1826 = DIRECTION('',(-0.404481746652,0.587858883153,0.700582935936));
#1827 = ORIENTED_EDGE('',*,*,#1455,.F.);
#1828 = PLANE('',#1829);
#1829 = AXIS2_PLACEMENT_3D('',#1830,#1831,#1832);
#1830 = CARTESIAN_POINT('',(56.31051177665,0.,0.));
#1831 = DIRECTION('',(0.866025403785,1.1E-16,0.5));
#1832 = DIRECTION('',(-0.5,1.9E-16,0.866025403785));
#1833 = ADVANCED_FACE('',(#1834),#1853,.T.);
#1834 = FACE_BOUND('',#1835,.F.);
#1835 = EDGE_LOOP('',(#1836,#1837,#1838,#1847));
#1836 = ORIENTED_EDGE('',*,*,#846,.F.);
#1837 = ORIENTED_EDGE('',*,*,#1806,.F.);
#1838 = ORIENTED_EDGE('',*,*,#1839,.F.);
#1839 = EDGE_CURVE('',#1840,#1807,#1842,.T.);
#1840 = VERTEX_POINT('',#1841);
#1841 = CARTESIAN_POINT('',(54.578460969081,1.578193035698,0.));
#1842 = ELLIPSE('',#1843,1.414213562373,1.);
#1843 = AXIS2_PLACEMENT_3D('',#1844,#1845,#1846);
#1844 = CARTESIAN_POINT('',(54.578460969081,1.578193035698,1.));
#1845 = DIRECTION('',(0.707106781187,-0.707106781187,0.));
#1846 = DIRECTION('',(0.707106781187,0.707106781187,-3.1E-16));
#1847 = ORIENTED_EDGE('',*,*,#1848,.T.);
#1848 = EDGE_CURVE('',#1840,#839,#1849,.T.);
#1849 = LINE('',#1850,#1851);
#1850 = CARTESIAN_POINT('',(80.558733681753,27.55846574837,0.));
#1851 = VECTOR('',#1852,1.);
#1852 = DIRECTION('',(-0.707106781187,-0.707106781187,0.));
#1853 = PLANE('',#1854);
#1854 = AXIS2_PLACEMENT_3D('',#1855,#1856,#1857);
#1855 = CARTESIAN_POINT('',(56.67742,3.677152066617,7.6));
#1856 = DIRECTION('',(0.707106781187,-0.707106781187,0.));
#1857 = DIRECTION('',(0.707106781187,0.707106781187,0.));
#1858 = ADVANCED_FACE('',(#1859,#1879),#1890,.F.);
#1859 = FACE_BOUND('',#1860,.F.);
#1860 = EDGE_LOOP('',(#1861,#1869,#1870,#1871,#1872,#1873));
#1861 = ORIENTED_EDGE('',*,*,#1862,.T.);
#1862 = EDGE_CURVE('',#1863,#1016,#1865,.T.);
#1863 = VERTEX_POINT('',#1864);
#1864 = CARTESIAN_POINT('',(54.578460969081,30.46194243423,
    -6.481627335531E-15));
#1865 = LINE('',#1866,#1867);
#1866 = CARTESIAN_POINT('',(51.651206698407,30.46194243423,
    -8.881784197001E-16));
#1867 = VECTOR('',#1868,1.);
#1868 = DIRECTION('',(-1.,0.,0.));
#1869 = ORIENTED_EDGE('',*,*,#1013,.F.);
#1870 = ORIENTED_EDGE('',*,*,#1059,.T.);
#1871 = ORIENTED_EDGE('',*,*,#838,.F.);
#1872 = ORIENTED_EDGE('',*,*,#1848,.F.);
#1873 = ORIENTED_EDGE('',*,*,#1874,.T.);
#1874 = EDGE_CURVE('',#1840,#1863,#1875,.T.);
#1875 = LINE('',#1876,#1877);
#1876 = CARTESIAN_POINT('',(54.578460969081,-4.4E-16,2.2E-16));
#1877 = VECTOR('',#1878,1.);
#1878 = DIRECTION('',(0.,1.,-2.2E-16));
#1879 = FACE_BOUND('',#1880,.F.);
#1880 = EDGE_LOOP('',(#1881));
#1881 = ORIENTED_EDGE('',*,*,#1882,.T.);
#1882 = EDGE_CURVE('',#1883,#1883,#1885,.T.);
#1883 = VERTEX_POINT('',#1884);
#1884 = CARTESIAN_POINT('',(24.80935,3.4017,0.));
#1885 = CIRCLE('',#1886,1.75);
#1886 = AXIS2_PLACEMENT_3D('',#1887,#1888,#1889);
#1887 = CARTESIAN_POINT('',(23.05935,3.4017,0.));
#1888 = DIRECTION('',(0.,0.,-1.));
#1889 = DIRECTION('',(1.,0.,0.));
#1890 = PLANE('',#1891);
#1891 = AXIS2_PLACEMENT_3D('',#1892,#1893,#1894);
#1892 = CARTESIAN_POINT('',(103.30241339681,52.577413396815,0.));
#1893 = DIRECTION('',(0.,0.,1.));
#1894 = DIRECTION('',(1.,0.,0.));
#1895 = ADVANCED_FACE('',(#1896,#1899),#1902,.T.);
#1896 = FACE_BOUND('',#1897,.T.);
#1897 = EDGE_LOOP('',(#1898));
#1898 = ORIENTED_EDGE('',*,*,#1216,.T.);
#1899 = FACE_BOUND('',#1900,.T.);
#1900 = EDGE_LOOP('',(#1901));
#1901 = ORIENTED_EDGE('',*,*,#996,.F.);
#1902 = PLANE('',#1903);
#1903 = AXIS2_PLACEMENT_3D('',#1904,#1905,#1906);
#1904 = CARTESIAN_POINT('',(191.87435,2.8417,11.));
#1905 = DIRECTION('',(0.,0.,1.));
#1906 = DIRECTION('',(1.,0.,0.));
#1907 = ADVANCED_FACE('',(#1908),#1922,.T.);
#1908 = FACE_BOUND('',#1909,.T.);
#1909 = EDGE_LOOP('',(#1910,#1911,#1912,#1913,#1914,#1921));
#1910 = ORIENTED_EDGE('',*,*,#1045,.F.);
#1911 = ORIENTED_EDGE('',*,*,#1406,.T.);
#1912 = ORIENTED_EDGE('',*,*,#1431,.T.);
#1913 = ORIENTED_EDGE('',*,*,#1822,.F.);
#1914 = ORIENTED_EDGE('',*,*,#1915,.T.);
#1915 = EDGE_CURVE('',#1815,#1863,#1916,.T.);
#1916 = ELLIPSE('',#1917,1.305407289332,1.);
#1917 = AXIS2_PLACEMENT_3D('',#1918,#1919,#1920);
#1918 = CARTESIAN_POINT('',(54.578460969081,31.301042065407,1.));
#1919 = DIRECTION('',(0.,0.766044443119,-0.642787609687));
#1920 = DIRECTION('',(0.,0.642787609687,0.766044443119));
#1921 = ORIENTED_EDGE('',*,*,#1862,.T.);
#1922 = PLANE('',#1923);
#1923 = AXIS2_PLACEMENT_3D('',#1924,#1925,#1926);
#1924 = CARTESIAN_POINT('',(0.,36.25,6.897938398149));
#1925 = DIRECTION('',(0.,0.766044443119,-0.642787609687));
#1926 = DIRECTION('',(0.,-0.642787609687,-0.766044443119));
#1927 = ADVANCED_FACE('',(#1928,#1931),#1942,.T.);
#1928 = FACE_BOUND('',#1929,.T.);
#1929 = EDGE_LOOP('',(#1930));
#1930 = ORIENTED_EDGE('',*,*,#1191,.T.);
#1931 = FACE_BOUND('',#1932,.T.);
#1932 = EDGE_LOOP('',(#1933));
#1933 = ORIENTED_EDGE('',*,*,#1934,.F.);
#1934 = EDGE_CURVE('',#1935,#1935,#1937,.T.);
#1935 = VERTEX_POINT('',#1936);
#1936 = CARTESIAN_POINT('',(24.80935,3.4017,11.));
#1937 = CIRCLE('',#1938,1.75);
#1938 = AXIS2_PLACEMENT_3D('',#1939,#1940,#1941);
#1939 = CARTESIAN_POINT('',(23.05935,3.4017,11.));
#1940 = DIRECTION('',(0.,0.,1.));
#1941 = DIRECTION('',(1.,0.,0.));
#1942 = PLANE('',#1943);
#1943 = AXIS2_PLACEMENT_3D('',#1944,#1945,#1946);
#1944 = CARTESIAN_POINT('',(23.05935,3.4017,11.));
#1945 = DIRECTION('',(0.,0.,1.));
#1946 = DIRECTION('',(1.,0.,0.));
#1947 = ADVANCED_FACE('',(#1948,#1951),#1954,.T.);
#1948 = FACE_BOUND('',#1949,.T.);
#1949 = EDGE_LOOP('',(#1950));
#1950 = ORIENTED_EDGE('',*,*,#1241,.T.);
#1951 = FACE_BOUND('',#1952,.T.);
#1952 = EDGE_LOOP('',(#1953));
#1953 = ORIENTED_EDGE('',*,*,#1628,.F.);
#1954 = PLANE('',#1955);
#1955 = AXIS2_PLACEMENT_3D('',#1956,#1957,#1958);
#1956 = CARTESIAN_POINT('',(3.24935,71.9667,11.));
#1957 = DIRECTION('',(0.,0.,1.));
#1958 = DIRECTION('',(1.,0.,0.));
#1959 = ADVANCED_FACE('',(#1960,#1963),#1966,.T.);
#1960 = FACE_BOUND('',#1961,.T.);
#1961 = EDGE_LOOP('',(#1962));
#1962 = ORIENTED_EDGE('',*,*,#1266,.T.);
#1963 = FACE_BOUND('',#1964,.T.);
#1964 = EDGE_LOOP('',(#1965));
#1965 = ORIENTED_EDGE('',*,*,#1388,.F.);
#1966 = PLANE('',#1967);
#1967 = AXIS2_PLACEMENT_3D('',#1968,#1969,#1970);
#1968 = CARTESIAN_POINT('',(190.99935,97.8417,11.));
#1969 = DIRECTION('',(0.,0.,1.));
#1970 = DIRECTION('',(1.,0.,0.));
#1971 = ADVANCED_FACE('',(#1972),#1992,.T.);
#1972 = FACE_BOUND('',#1973,.T.);
#1973 = EDGE_LOOP('',(#1974,#1975,#1976,#1977,#1984,#1985));
#1974 = ORIENTED_EDGE('',*,*,#1782,.F.);
#1975 = ORIENTED_EDGE('',*,*,#1529,.T.);
#1976 = ORIENTED_EDGE('',*,*,#1675,.F.);
#1977 = ORIENTED_EDGE('',*,*,#1978,.T.);
#1978 = EDGE_CURVE('',#1668,#1716,#1979,.T.);
#1979 = ELLIPSE('',#1980,1.305407289332,1.);
#1980 = AXIS2_PLACEMENT_3D('',#1981,#1982,#1983);
#1981 = CARTESIAN_POINT('',(129.57846096908,31.301042065407,1.));
#1982 = DIRECTION('',(0.,0.766044443119,-0.642787609687));
#1983 = DIRECTION('',(0.,0.642787609687,0.766044443119));
#1984 = ORIENTED_EDGE('',*,*,#1715,.T.);
#1985 = ORIENTED_EDGE('',*,*,#1986,.T.);
#1986 = EDGE_CURVE('',#1718,#1783,#1987,.T.);
#1987 = ELLIPSE('',#1988,1.305407289332,1.);
#1988 = AXIS2_PLACEMENT_3D('',#1989,#1990,#1991);
#1989 = CARTESIAN_POINT('',(75.421539030919,31.301042065407,1.));
#1990 = DIRECTION('',(0.,0.766044443119,-0.642787609687));
#1991 = DIRECTION('',(0.,0.642787609687,0.766044443119));
#1992 = PLANE('',#1993);
#1993 = AXIS2_PLACEMENT_3D('',#1994,#1995,#1996);
#1994 = CARTESIAN_POINT('',(0.,36.25,6.897938398149));
#1995 = DIRECTION('',(0.,0.766044443119,-0.642787609687));
#1996 = DIRECTION('',(0.,-0.642787609687,-0.766044443119));
#1997 = ADVANCED_FACE('',(#1998),#2001,.T.);
#1998 = FACE_BOUND('',#1999,.T.);
#1999 = EDGE_LOOP('',(#2000));
#2000 = ORIENTED_EDGE('',*,*,#1580,.T.);
#2001 = PLANE('',#2002);
#2002 = AXIS2_PLACEMENT_3D('',#2003,#2004,#2005);
#2003 = CARTESIAN_POINT('',(140.,13.,13.6));
#2004 = DIRECTION('',(0.,0.,-1.));
#2005 = DIRECTION('',(-1.,0.,0.));
#2006 = ADVANCED_FACE('',(#2007),#2010,.T.);
#2007 = FACE_BOUND('',#2008,.T.);
#2008 = EDGE_LOOP('',(#2009));
#2009 = ORIENTED_EDGE('',*,*,#1605,.T.);
#2010 = PLANE('',#2011);
#2011 = AXIS2_PLACEMENT_3D('',#2012,#2013,#2014);
#2012 = CARTESIAN_POINT('',(65.,13.,13.6));
#2013 = DIRECTION('',(0.,0.,-1.));
#2014 = DIRECTION('',(-1.,0.,0.));
#2015 = ADVANCED_FACE('',(#2016),#2022,.T.);
#2016 = FACE_BOUND('',#2017,.T.);
#2017 = EDGE_LOOP('',(#2018,#2019,#2020,#2021));
#2018 = ORIENTED_EDGE('',*,*,#1667,.F.);
#2019 = ORIENTED_EDGE('',*,*,#1692,.F.);
#2020 = ORIENTED_EDGE('',*,*,#1741,.T.);
#2021 = ORIENTED_EDGE('',*,*,#1978,.F.);
#2022 = CYLINDRICAL_SURFACE('',#2023,1.);
#2023 = AXIS2_PLACEMENT_3D('',#2024,#2025,#2026);
#2024 = CARTESIAN_POINT('',(129.57846096908,-2.2E-16,1.));
#2025 = DIRECTION('',(0.,1.,-2.2E-16));
#2026 = DIRECTION('',(0.866025403785,1.1E-16,0.5));
#2027 = ADVANCED_FACE('',(#2028),#2034,.T.);
#2028 = FACE_BOUND('',#2029,.T.);
#2029 = EDGE_LOOP('',(#2030,#2031,#2032,#2033));
#2030 = ORIENTED_EDGE('',*,*,#1725,.F.);
#2031 = ORIENTED_EDGE('',*,*,#1764,.F.);
#2032 = ORIENTED_EDGE('',*,*,#1790,.T.);
#2033 = ORIENTED_EDGE('',*,*,#1986,.F.);
#2034 = CYLINDRICAL_SURFACE('',#2035,1.);
#2035 = AXIS2_PLACEMENT_3D('',#2036,#2037,#2038);
#2036 = CARTESIAN_POINT('',(75.421539030919,-2.2E-16,1.));
#2037 = DIRECTION('',(0.,1.,-2.2E-16));
#2038 = DIRECTION('',(0.,-2.2E-16,-1.));
#2039 = ADVANCED_FACE('',(#2040),#2046,.T.);
#2040 = FACE_BOUND('',#2041,.F.);
#2041 = EDGE_LOOP('',(#2042,#2043,#2044,#2045));
#2042 = ORIENTED_EDGE('',*,*,#1874,.F.);
#2043 = ORIENTED_EDGE('',*,*,#1839,.T.);
#2044 = ORIENTED_EDGE('',*,*,#1814,.T.);
#2045 = ORIENTED_EDGE('',*,*,#1915,.T.);
#2046 = CYLINDRICAL_SURFACE('',#2047,1.);
#2047 = AXIS2_PLACEMENT_3D('',#2048,#2049,#2050);
#2048 = CARTESIAN_POINT('',(54.578460969081,-2.2E-16,1.));
#2049 = DIRECTION('',(0.,1.,-2.2E-16));
#2050 = DIRECTION('',(0.,-2.2E-16,-1.));
#2051 = ADVANCED_FACE('',(#2052),#2063,.F.);
#2052 = FACE_BOUND('',#2053,.T.);
#2053 = EDGE_LOOP('',(#2054,#2060,#2061,#2062));
#2054 = ORIENTED_EDGE('',*,*,#2055,.F.);
#2055 = EDGE_CURVE('',#1935,#1883,#2056,.T.);
#2056 = LINE('',#2057,#2058);
#2057 = CARTESIAN_POINT('',(24.80935,3.4017,11.));
#2058 = VECTOR('',#2059,1.);
#2059 = DIRECTION('',(-6.142093202436E-17,0.,-1.));
#2060 = ORIENTED_EDGE('',*,*,#1934,.T.);
#2061 = ORIENTED_EDGE('',*,*,#2055,.T.);
#2062 = ORIENTED_EDGE('',*,*,#1882,.T.);
#2063 = CYLINDRICAL_SURFACE('',#2064,1.75);
#2064 = AXIS2_PLACEMENT_3D('',#2065,#2066,#2067);
#2065 = CARTESIAN_POINT('',(23.05935,3.4017,11.));
#2066 = DIRECTION('',(-0.,-0.,-1.));
#2067 = DIRECTION('',(1.,0.,0.));
#2068 = ( GEOMETRIC_REPRESENTATION_CONTEXT(3) 
GLOBAL_UNCERTAINTY_ASSIGNED_CONTEXT((#2072)) 
GLOBAL_UNIT_ASSIGNED_CONTEXT((#2069,#2070,#2071)) REPRESENTATION_CONTEXT
('Context #1','3D Context with UNIT and UNCERTAINTY') );
#2069 = ( LENGTH_UNIT() NAMED_UNIT(*) SI_UNIT(.MILLI.,.METRE.) );
#2070 = ( NAMED_UNIT(*) PLANE_ANGLE_UNIT() SI_UNIT($,.RADIAN.) );
#2071 = ( NAMED_UNIT(*) SI_UNIT($,.STERADIAN.) SOLID_ANGLE_UNIT() );
#2072 = UNCERTAINTY_MEASURE_WITH_UNIT(LENGTH_MEASURE(1.E-04),#2069,
  'distance_accuracy_value','confusion accuracy');
#2073 = PRODUCT_RELATED_PRODUCT_CATEGORY('part',$,(#7));
#2074 = MECHANICAL_DESIGN_GEOMETRIC_PRESENTATION_REPRESENTATION('',(
    #2075),#2068);
#2075 = STYLED_ITEM('color',(#2076),#15);
#2076 = PRESENTATION_STYLE_ASSIGNMENT((#2077,#2085));
#2077 = SURFACE_STYLE_USAGE(.BOTH.,#2078);
#2078 = SURFACE_SIDE_STYLE('',(#2079,#2083));
#2079 = SURFACE_STYLE_FILL_AREA(#2080);
#2080 = FILL_AREA_STYLE('',(#2081));
#2081 = FILL_AREA_STYLE_COLOUR('',#2082);
#2082 = DRAUGHTING_PRE_DEFINED_COLOUR('white');
#2083 = SURFACE_STYLE_RENDERING_WITH_PROPERTIES(.NORMAL_SHADING.,#2082,(
    #2084));
#2084 = SURFACE_STYLE_TRANSPARENT(0.699999988079);
#2085 = CURVE_STYLE('',#2086,POSITIVE_LENGTH_MEASURE(0.1),#2087);
#2086 = DRAUGHTING_PRE_DEFINED_CURVE_FONT('continuous');
#2087 = COLOUR_RGB('',7.450980588415E-02,7.450980588415E-02,
  7.450980588415E-02);
ENDSEC;
END-ISO-10303-21;
